ISO-10303-21;
HEADER;
/* Generated by software containing ST-Developer
 * from STEP Tools, Inc. (www.steptools.com) 
 */
/* OPTION: using custom renumber hook */

FILE_DESCRIPTION(
/* description */ ('STEP AP242 Edition 2',
'CAx-IF Rec.Pracs.---Representation and Presentation of Product Manufa
cturing Information (PMI)---4.0---2014-10-13',
'CAx-IF Rec.Pracs.---3D Tessellated Geometry---0.4---2014-09-14','2;1',
'CAx-IF Rec.Pracs.---User Defined Attributes---1.5---2016-08-15'),
/* implementation_level */ '2;1');

FILE_NAME(
/* name */ 'IODR extension v2',
/* time_stamp */ '2026-08-20T15:47:38Z',
/* author */ (''),
/* organization */ (''),
/* preprocessor_version */ 'ST-DEVELOPER v20',
/* originating_system */ 'ONSHAPE BY PTC INC, 1.219',
/* authorisation */ '  ');

FILE_SCHEMA (('AP242_MANAGED_MODEL_BASED_3D_ENGINEERING_MIM_LF { 1 0 10303 442 3 1 4 }'));
ENDSEC;

DATA;
#10=SHAPE_REPRESENTATION_RELATIONSHIP('','',#635,#11);
#11=ADVANCED_BREP_SHAPE_REPRESENTATION('',(#633),#1049);
#12=CYLINDRICAL_SURFACE('',#660,0.001524);
#13=CYLINDRICAL_SURFACE('',#663,0.001524);
#14=CYLINDRICAL_SURFACE('',#666,0.001524);
#15=CYLINDRICAL_SURFACE('',#669,0.001524);
#16=CYLINDRICAL_SURFACE('',#682,0.001524);
#17=CYLINDRICAL_SURFACE('',#685,0.001524);
#18=CYLINDRICAL_SURFACE('',#688,0.001524);
#19=CYLINDRICAL_SURFACE('',#691,0.001524);
#20=CYLINDRICAL_SURFACE('',#696,0.0015494);
#21=CYLINDRICAL_SURFACE('',#697,0.0015494);
#22=CYLINDRICAL_SURFACE('',#698,0.0015494);
#23=CYLINDRICAL_SURFACE('',#699,0.0015494);
#24=LINE('',#883,#72);
#25=LINE('',#886,#73);
#26=LINE('',#888,#74);
#27=LINE('',#890,#75);
#28=LINE('',#894,#76);
#29=LINE('',#897,#77);
#30=LINE('',#899,#78);
#31=LINE('',#901,#79);
#32=LINE('',#911,#80);
#33=LINE('',#914,#81);
#34=LINE('',#916,#82);
#35=LINE('',#918,#83);
#36=LINE('',#924,#84);
#37=LINE('',#927,#85);
#38=LINE('',#929,#86);
#39=LINE('',#931,#87);
#40=LINE('',#932,#88);
#41=LINE('',#935,#89);
#42=LINE('',#937,#90);
#43=LINE('',#939,#91);
#44=LINE('',#948,#92);
#45=LINE('',#950,#93);
#46=LINE('',#952,#94);
#47=LINE('',#962,#95);
#48=LINE('',#964,#96);
#49=LINE('',#966,#97);
#50=LINE('',#968,#98);
#51=LINE('',#969,#99);
#52=LINE('',#970,#100);
#53=LINE('',#972,#101);
#54=LINE('',#973,#102);
#55=LINE('',#974,#103);
#56=LINE('',#992,#104);
#57=LINE('',#994,#105);
#58=LINE('',#996,#106);
#59=LINE('',#998,#107);
#60=LINE('',#1000,#108);
#61=LINE('',#1002,#109);
#62=LINE('',#1004,#110);
#63=LINE('',#1006,#111);
#64=LINE('',#1009,#112);
#65=LINE('',#1011,#113);
#66=LINE('',#1013,#114);
#67=LINE('',#1015,#115);
#68=LINE('',#1017,#116);
#69=LINE('',#1019,#117);
#70=LINE('',#1021,#118);
#71=LINE('',#1023,#119);
#72=VECTOR('',#707,1.);
#73=VECTOR('',#708,1.);
#74=VECTOR('',#709,1.);
#75=VECTOR('',#710,1.);
#76=VECTOR('',#715,1.);
#77=VECTOR('',#716,1.);
#78=VECTOR('',#717,1.);
#79=VECTOR('',#718,1.);
#80=VECTOR('',#729,1.);
#81=VECTOR('',#730,1.);
#82=VECTOR('',#731,1.);
#83=VECTOR('',#732,1.);
#84=VECTOR('',#739,1.);
#85=VECTOR('',#740,1.);
#86=VECTOR('',#741,1.);
#87=VECTOR('',#742,1.);
#88=VECTOR('',#743,1.);
#89=VECTOR('',#744,1.);
#90=VECTOR('',#745,1.);
#91=VECTOR('',#746,1.);
#92=VECTOR('',#755,1.);
#93=VECTOR('',#756,1.);
#94=VECTOR('',#757,1.);
#95=VECTOR('',#768,1.);
#96=VECTOR('',#769,1.);
#97=VECTOR('',#770,1.);
#98=VECTOR('',#773,1.);
#99=VECTOR('',#774,1.);
#100=VECTOR('',#775,1.);
#101=VECTOR('',#778,1.);
#102=VECTOR('',#779,1.);
#103=VECTOR('',#780,1.);
#104=VECTOR('',#807,1.);
#105=VECTOR('',#808,1.);
#106=VECTOR('',#809,1.);
#107=VECTOR('',#812,1.);
#108=VECTOR('',#813,1.);
#109=VECTOR('',#816,1.);
#110=VECTOR('',#817,1.);
#111=VECTOR('',#820,1.);
#112=VECTOR('',#825,1.);
#113=VECTOR('',#826,1.);
#114=VECTOR('',#827,1.);
#115=VECTOR('',#830,1.);
#116=VECTOR('',#831,1.);
#117=VECTOR('',#834,1.);
#118=VECTOR('',#835,1.);
#119=VECTOR('',#838,1.);
#120=ORIENTED_EDGE('',*,*,#264,.F.);
#121=ORIENTED_EDGE('',*,*,#265,.T.);
#122=ORIENTED_EDGE('',*,*,#266,.T.);
#123=ORIENTED_EDGE('',*,*,#267,.T.);
#124=ORIENTED_EDGE('',*,*,#268,.F.);
#125=ORIENTED_EDGE('',*,*,#269,.T.);
#126=ORIENTED_EDGE('',*,*,#270,.F.);
#127=ORIENTED_EDGE('',*,*,#271,.T.);
#128=ORIENTED_EDGE('',*,*,#272,.T.);
#129=ORIENTED_EDGE('',*,*,#273,.T.);
#130=ORIENTED_EDGE('',*,*,#274,.T.);
#131=ORIENTED_EDGE('',*,*,#275,.F.);
#132=ORIENTED_EDGE('',*,*,#276,.T.);
#133=ORIENTED_EDGE('',*,*,#277,.T.);
#134=ORIENTED_EDGE('',*,*,#278,.F.);
#135=ORIENTED_EDGE('',*,*,#279,.T.);
#136=ORIENTED_EDGE('',*,*,#280,.T.);
#137=ORIENTED_EDGE('',*,*,#281,.T.);
#138=ORIENTED_EDGE('',*,*,#282,.F.);
#139=ORIENTED_EDGE('',*,*,#283,.F.);
#140=ORIENTED_EDGE('',*,*,#284,.F.);
#141=ORIENTED_EDGE('',*,*,#285,.T.);
#142=ORIENTED_EDGE('',*,*,#286,.T.);
#143=ORIENTED_EDGE('',*,*,#287,.F.);
#144=ORIENTED_EDGE('',*,*,#288,.F.);
#145=ORIENTED_EDGE('',*,*,#289,.T.);
#146=ORIENTED_EDGE('',*,*,#290,.T.);
#147=ORIENTED_EDGE('',*,*,#291,.F.);
#148=ORIENTED_EDGE('',*,*,#292,.F.);
#149=ORIENTED_EDGE('',*,*,#293,.F.);
#150=ORIENTED_EDGE('',*,*,#294,.F.);
#151=ORIENTED_EDGE('',*,*,#295,.F.);
#152=ORIENTED_EDGE('',*,*,#296,.T.);
#153=ORIENTED_EDGE('',*,*,#270,.T.);
#154=ORIENTED_EDGE('',*,*,#297,.F.);
#155=ORIENTED_EDGE('',*,*,#298,.T.);
#156=ORIENTED_EDGE('',*,*,#299,.F.);
#157=ORIENTED_EDGE('',*,*,#300,.F.);
#158=ORIENTED_EDGE('',*,*,#301,.F.);
#159=ORIENTED_EDGE('',*,*,#302,.F.);
#160=ORIENTED_EDGE('',*,*,#266,.F.);
#161=ORIENTED_EDGE('',*,*,#303,.F.);
#162=ORIENTED_EDGE('',*,*,#304,.F.);
#163=ORIENTED_EDGE('',*,*,#305,.T.);
#164=ORIENTED_EDGE('',*,*,#297,.T.);
#165=ORIENTED_EDGE('',*,*,#273,.F.);
#166=ORIENTED_EDGE('',*,*,#306,.T.);
#167=ORIENTED_EDGE('',*,*,#281,.F.);
#168=ORIENTED_EDGE('',*,*,#307,.F.);
#169=ORIENTED_EDGE('',*,*,#267,.F.);
#170=ORIENTED_EDGE('',*,*,#305,.F.);
#171=ORIENTED_EDGE('',*,*,#308,.F.);
#172=ORIENTED_EDGE('',*,*,#303,.T.);
#173=ORIENTED_EDGE('',*,*,#265,.F.);
#174=ORIENTED_EDGE('',*,*,#309,.F.);
#175=ORIENTED_EDGE('',*,*,#279,.F.);
#176=ORIENTED_EDGE('',*,*,#310,.T.);
#177=ORIENTED_EDGE('',*,*,#271,.F.);
#178=ORIENTED_EDGE('',*,*,#296,.F.);
#179=ORIENTED_EDGE('',*,*,#311,.T.);
#180=ORIENTED_EDGE('',*,*,#312,.F.);
#181=ORIENTED_EDGE('',*,*,#292,.T.);
#182=ORIENTED_EDGE('',*,*,#312,.T.);
#183=ORIENTED_EDGE('',*,*,#313,.F.);
#184=ORIENTED_EDGE('',*,*,#293,.T.);
#185=ORIENTED_EDGE('',*,*,#313,.T.);
#186=ORIENTED_EDGE('',*,*,#314,.F.);
#187=ORIENTED_EDGE('',*,*,#294,.T.);
#188=ORIENTED_EDGE('',*,*,#314,.T.);
#189=ORIENTED_EDGE('',*,*,#315,.F.);
#190=ORIENTED_EDGE('',*,*,#295,.T.);
#191=ORIENTED_EDGE('',*,*,#315,.T.);
#192=ORIENTED_EDGE('',*,*,#289,.F.);
#193=ORIENTED_EDGE('',*,*,#316,.F.);
#194=ORIENTED_EDGE('',*,*,#317,.T.);
#195=ORIENTED_EDGE('',*,*,#318,.T.);
#196=ORIENTED_EDGE('',*,*,#288,.T.);
#197=ORIENTED_EDGE('',*,*,#319,.F.);
#198=ORIENTED_EDGE('',*,*,#320,.F.);
#199=ORIENTED_EDGE('',*,*,#316,.T.);
#200=ORIENTED_EDGE('',*,*,#291,.T.);
#201=ORIENTED_EDGE('',*,*,#321,.F.);
#202=ORIENTED_EDGE('',*,*,#322,.F.);
#203=ORIENTED_EDGE('',*,*,#319,.T.);
#204=ORIENTED_EDGE('',*,*,#290,.F.);
#205=ORIENTED_EDGE('',*,*,#318,.F.);
#206=ORIENTED_EDGE('',*,*,#323,.T.);
#207=ORIENTED_EDGE('',*,*,#321,.T.);
#208=ORIENTED_EDGE('',*,*,#317,.F.);
#209=ORIENTED_EDGE('',*,*,#320,.T.);
#210=ORIENTED_EDGE('',*,*,#322,.T.);
#211=ORIENTED_EDGE('',*,*,#323,.F.);
#212=ORIENTED_EDGE('',*,*,#285,.F.);
#213=ORIENTED_EDGE('',*,*,#324,.F.);
#214=ORIENTED_EDGE('',*,*,#325,.T.);
#215=ORIENTED_EDGE('',*,*,#326,.T.);
#216=ORIENTED_EDGE('',*,*,#284,.T.);
#217=ORIENTED_EDGE('',*,*,#327,.F.);
#218=ORIENTED_EDGE('',*,*,#328,.F.);
#219=ORIENTED_EDGE('',*,*,#324,.T.);
#220=ORIENTED_EDGE('',*,*,#287,.T.);
#221=ORIENTED_EDGE('',*,*,#329,.F.);
#222=ORIENTED_EDGE('',*,*,#330,.F.);
#223=ORIENTED_EDGE('',*,*,#327,.T.);
#224=ORIENTED_EDGE('',*,*,#286,.F.);
#225=ORIENTED_EDGE('',*,*,#326,.F.);
#226=ORIENTED_EDGE('',*,*,#331,.T.);
#227=ORIENTED_EDGE('',*,*,#329,.T.);
#228=ORIENTED_EDGE('',*,*,#325,.F.);
#229=ORIENTED_EDGE('',*,*,#328,.T.);
#230=ORIENTED_EDGE('',*,*,#330,.T.);
#231=ORIENTED_EDGE('',*,*,#331,.F.);
#232=ORIENTED_EDGE('',*,*,#332,.F.);
#233=ORIENTED_EDGE('',*,*,#302,.T.);
#234=ORIENTED_EDGE('',*,*,#332,.T.);
#235=ORIENTED_EDGE('',*,*,#333,.F.);
#236=ORIENTED_EDGE('',*,*,#301,.T.);
#237=ORIENTED_EDGE('',*,*,#333,.T.);
#238=ORIENTED_EDGE('',*,*,#334,.F.);
#239=ORIENTED_EDGE('',*,*,#300,.T.);
#240=ORIENTED_EDGE('',*,*,#334,.T.);
#241=ORIENTED_EDGE('',*,*,#335,.F.);
#242=ORIENTED_EDGE('',*,*,#299,.T.);
#243=ORIENTED_EDGE('',*,*,#335,.T.);
#244=ORIENTED_EDGE('',*,*,#280,.F.);
#245=ORIENTED_EDGE('',*,*,#309,.T.);
#246=ORIENTED_EDGE('',*,*,#268,.T.);
#247=ORIENTED_EDGE('',*,*,#307,.T.);
#248=ORIENTED_EDGE('',*,*,#310,.F.);
#249=ORIENTED_EDGE('',*,*,#278,.T.);
#250=ORIENTED_EDGE('',*,*,#306,.F.);
#251=ORIENTED_EDGE('',*,*,#272,.F.);
#252=ORIENTED_EDGE('',*,*,#264,.T.);
#253=ORIENTED_EDGE('',*,*,#277,.F.);
#254=ORIENTED_EDGE('',*,*,#274,.F.);
#255=ORIENTED_EDGE('',*,*,#282,.T.);
#256=ORIENTED_EDGE('',*,*,#275,.T.);
#257=ORIENTED_EDGE('',*,*,#276,.F.);
#258=ORIENTED_EDGE('',*,*,#269,.F.);
#259=ORIENTED_EDGE('',*,*,#283,.T.);
#260=ORIENTED_EDGE('',*,*,#304,.T.);
#261=ORIENTED_EDGE('',*,*,#311,.F.);
#262=ORIENTED_EDGE('',*,*,#298,.F.);
#263=ORIENTED_EDGE('',*,*,#308,.T.);
#264=EDGE_CURVE('',#336,#336,#392,.T.);
#265=EDGE_CURVE('',#337,#338,#24,.T.);
#266=EDGE_CURVE('',#338,#339,#25,.T.);
#267=EDGE_CURVE('',#339,#340,#26,.T.);
#268=EDGE_CURVE('',#337,#340,#27,.T.);
#269=EDGE_CURVE('',#341,#341,#393,.T.);
#270=EDGE_CURVE('',#342,#343,#28,.T.);
#271=EDGE_CURVE('',#342,#344,#29,.T.);
#272=EDGE_CURVE('',#344,#345,#30,.T.);
#273=EDGE_CURVE('',#345,#343,#31,.T.);
#274=EDGE_CURVE('',#346,#346,#394,.T.);
#275=EDGE_CURVE('',#347,#347,#395,.T.);
#276=EDGE_CURVE('',#348,#348,#396,.T.);
#277=EDGE_CURVE('',#349,#349,#397,.T.);
#278=EDGE_CURVE('',#350,#351,#32,.T.);
#279=EDGE_CURVE('',#350,#352,#33,.T.);
#280=EDGE_CURVE('',#352,#353,#34,.T.);
#281=EDGE_CURVE('',#353,#351,#35,.T.);
#282=EDGE_CURVE('',#354,#354,#398,.F.);
#283=EDGE_CURVE('',#355,#355,#399,.F.);
#284=EDGE_CURVE('',#356,#357,#36,.T.);
#285=EDGE_CURVE('',#356,#358,#37,.T.);
#286=EDGE_CURVE('',#358,#359,#38,.T.);
#287=EDGE_CURVE('',#357,#359,#39,.T.);
#288=EDGE_CURVE('',#360,#361,#40,.T.);
#289=EDGE_CURVE('',#360,#362,#41,.T.);
#290=EDGE_CURVE('',#362,#363,#42,.T.);
#291=EDGE_CURVE('',#361,#363,#43,.T.);
#292=EDGE_CURVE('',#364,#364,#400,.T.);
#293=EDGE_CURVE('',#365,#365,#401,.T.);
#294=EDGE_CURVE('',#366,#366,#402,.T.);
#295=EDGE_CURVE('',#367,#367,#403,.T.);
#296=EDGE_CURVE('',#368,#342,#44,.T.);
#297=EDGE_CURVE('',#369,#343,#45,.T.);
#298=EDGE_CURVE('',#369,#368,#46,.T.);
#299=EDGE_CURVE('',#370,#370,#404,.T.);
#300=EDGE_CURVE('',#371,#371,#405,.T.);
#301=EDGE_CURVE('',#372,#372,#406,.T.);
#302=EDGE_CURVE('',#373,#373,#407,.T.);
#303=EDGE_CURVE('',#374,#338,#47,.T.);
#304=EDGE_CURVE('',#375,#374,#48,.T.);
#305=EDGE_CURVE('',#375,#339,#49,.T.);
#306=EDGE_CURVE('',#345,#351,#50,.T.);
#307=EDGE_CURVE('',#340,#353,#51,.T.);
#308=EDGE_CURVE('',#369,#375,#52,.T.);
#309=EDGE_CURVE('',#352,#337,#53,.T.);
#310=EDGE_CURVE('',#350,#344,#54,.T.);
#311=EDGE_CURVE('',#368,#374,#55,.T.);
#312=EDGE_CURVE('',#376,#376,#408,.T.);
#313=EDGE_CURVE('',#377,#377,#409,.T.);
#314=EDGE_CURVE('',#378,#378,#410,.T.);
#315=EDGE_CURVE('',#379,#379,#411,.T.);
#316=EDGE_CURVE('',#380,#360,#56,.T.);
#317=EDGE_CURVE('',#380,#381,#57,.T.);
#318=EDGE_CURVE('',#381,#362,#58,.T.);
#319=EDGE_CURVE('',#382,#361,#59,.T.);
#320=EDGE_CURVE('',#380,#382,#60,.T.);
#321=EDGE_CURVE('',#383,#363,#61,.T.);
#322=EDGE_CURVE('',#382,#383,#62,.T.);
#323=EDGE_CURVE('',#381,#383,#63,.T.);
#324=EDGE_CURVE('',#384,#356,#64,.T.);
#325=EDGE_CURVE('',#384,#385,#65,.T.);
#326=EDGE_CURVE('',#385,#358,#66,.T.);
#327=EDGE_CURVE('',#386,#357,#67,.T.);
#328=EDGE_CURVE('',#384,#386,#68,.T.);
#329=EDGE_CURVE('',#387,#359,#69,.T.);
#330=EDGE_CURVE('',#386,#387,#70,.T.);
#331=EDGE_CURVE('',#385,#387,#71,.T.);
#332=EDGE_CURVE('',#388,#388,#412,.T.);
#333=EDGE_CURVE('',#389,#389,#413,.T.);
#334=EDGE_CURVE('',#390,#390,#414,.T.);
#335=EDGE_CURVE('',#391,#391,#415,.T.);
#336=VERTEX_POINT('',#882);
#337=VERTEX_POINT('',#884);
#338=VERTEX_POINT('',#885);
#339=VERTEX_POINT('',#887);
#340=VERTEX_POINT('',#889);
#341=VERTEX_POINT('',#892);
#342=VERTEX_POINT('',#895);
#343=VERTEX_POINT('',#896);
#344=VERTEX_POINT('',#898);
#345=VERTEX_POINT('',#900);
#346=VERTEX_POINT('',#903);
#347=VERTEX_POINT('',#905);
#348=VERTEX_POINT('',#908);
#349=VERTEX_POINT('',#910);
#350=VERTEX_POINT('',#912);
#351=VERTEX_POINT('',#913);
#352=VERTEX_POINT('',#915);
#353=VERTEX_POINT('',#917);
#354=VERTEX_POINT('',#920);
#355=VERTEX_POINT('',#922);
#356=VERTEX_POINT('',#925);
#357=VERTEX_POINT('',#926);
#358=VERTEX_POINT('',#928);
#359=VERTEX_POINT('',#930);
#360=VERTEX_POINT('',#933);
#361=VERTEX_POINT('',#934);
#362=VERTEX_POINT('',#936);
#363=VERTEX_POINT('',#938);
#364=VERTEX_POINT('',#941);
#365=VERTEX_POINT('',#943);
#366=VERTEX_POINT('',#945);
#367=VERTEX_POINT('',#947);
#368=VERTEX_POINT('',#949);
#369=VERTEX_POINT('',#951);
#370=VERTEX_POINT('',#955);
#371=VERTEX_POINT('',#957);
#372=VERTEX_POINT('',#959);
#373=VERTEX_POINT('',#961);
#374=VERTEX_POINT('',#963);
#375=VERTEX_POINT('',#965);
#376=VERTEX_POINT('',#977);
#377=VERTEX_POINT('',#981);
#378=VERTEX_POINT('',#985);
#379=VERTEX_POINT('',#989);
#380=VERTEX_POINT('',#993);
#381=VERTEX_POINT('',#995);
#382=VERTEX_POINT('',#999);
#383=VERTEX_POINT('',#1003);
#384=VERTEX_POINT('',#1010);
#385=VERTEX_POINT('',#1012);
#386=VERTEX_POINT('',#1016);
#387=VERTEX_POINT('',#1020);
#388=VERTEX_POINT('',#1027);
#389=VERTEX_POINT('',#1031);
#390=VERTEX_POINT('',#1035);
#391=VERTEX_POINT('',#1039);
#392=CIRCLE('',#638,0.0015494);
#393=CIRCLE('',#639,0.0015494);
#394=CIRCLE('',#641,0.0015494);
#395=CIRCLE('',#642,0.0015494);
#396=CIRCLE('',#644,0.0015494);
#397=CIRCLE('',#645,0.0015494);
#398=CIRCLE('',#646,0.0015494);
#399=CIRCLE('',#647,0.0015494);
#400=CIRCLE('',#649,0.001524);
#401=CIRCLE('',#650,0.001524);
#402=CIRCLE('',#651,0.001524);
#403=CIRCLE('',#652,0.001524);
#404=CIRCLE('',#654,0.001524);
#405=CIRCLE('',#655,0.001524);
#406=CIRCLE('',#656,0.001524);
#407=CIRCLE('',#657,0.001524);
#408=CIRCLE('',#661,0.001524);
#409=CIRCLE('',#664,0.001524);
#410=CIRCLE('',#667,0.001524);
#411=CIRCLE('',#670,0.001524);
#412=CIRCLE('',#683,0.001524);
#413=CIRCLE('',#686,0.001524);
#414=CIRCLE('',#689,0.001524);
#415=CIRCLE('',#692,0.001524);
#416=EDGE_LOOP('',(#120));
#417=EDGE_LOOP('',(#121,#122,#123,#124));
#418=EDGE_LOOP('',(#125));
#419=EDGE_LOOP('',(#126,#127,#128,#129));
#420=EDGE_LOOP('',(#130));
#421=EDGE_LOOP('',(#131));
#422=EDGE_LOOP('',(#132));
#423=EDGE_LOOP('',(#133));
#424=EDGE_LOOP('',(#134,#135,#136,#137));
#425=EDGE_LOOP('',(#138));
#426=EDGE_LOOP('',(#139));
#427=EDGE_LOOP('',(#140,#141,#142,#143));
#428=EDGE_LOOP('',(#144,#145,#146,#147));
#429=EDGE_LOOP('',(#148));
#430=EDGE_LOOP('',(#149));
#431=EDGE_LOOP('',(#150));
#432=EDGE_LOOP('',(#151));
#433=EDGE_LOOP('',(#152,#153,#154,#155));
#434=EDGE_LOOP('',(#156));
#435=EDGE_LOOP('',(#157));
#436=EDGE_LOOP('',(#158));
#437=EDGE_LOOP('',(#159));
#438=EDGE_LOOP('',(#160,#161,#162,#163));
#439=EDGE_LOOP('',(#164,#165,#166,#167,#168,#169,#170,#171));
#440=EDGE_LOOP('',(#172,#173,#174,#175,#176,#177,#178,#179));
#441=EDGE_LOOP('',(#180));
#442=EDGE_LOOP('',(#181));
#443=EDGE_LOOP('',(#182));
#444=EDGE_LOOP('',(#183));
#445=EDGE_LOOP('',(#184));
#446=EDGE_LOOP('',(#185));
#447=EDGE_LOOP('',(#186));
#448=EDGE_LOOP('',(#187));
#449=EDGE_LOOP('',(#188));
#450=EDGE_LOOP('',(#189));
#451=EDGE_LOOP('',(#190));
#452=EDGE_LOOP('',(#191));
#453=EDGE_LOOP('',(#192,#193,#194,#195));
#454=EDGE_LOOP('',(#196,#197,#198,#199));
#455=EDGE_LOOP('',(#200,#201,#202,#203));
#456=EDGE_LOOP('',(#204,#205,#206,#207));
#457=EDGE_LOOP('',(#208,#209,#210,#211));
#458=EDGE_LOOP('',(#212,#213,#214,#215));
#459=EDGE_LOOP('',(#216,#217,#218,#219));
#460=EDGE_LOOP('',(#220,#221,#222,#223));
#461=EDGE_LOOP('',(#224,#225,#226,#227));
#462=EDGE_LOOP('',(#228,#229,#230,#231));
#463=EDGE_LOOP('',(#232));
#464=EDGE_LOOP('',(#233));
#465=EDGE_LOOP('',(#234));
#466=EDGE_LOOP('',(#235));
#467=EDGE_LOOP('',(#236));
#468=EDGE_LOOP('',(#237));
#469=EDGE_LOOP('',(#238));
#470=EDGE_LOOP('',(#239));
#471=EDGE_LOOP('',(#240));
#472=EDGE_LOOP('',(#241));
#473=EDGE_LOOP('',(#242));
#474=EDGE_LOOP('',(#243));
#475=EDGE_LOOP('',(#244,#245,#246,#247));
#476=EDGE_LOOP('',(#248,#249,#250,#251));
#477=EDGE_LOOP('',(#252));
#478=EDGE_LOOP('',(#253));
#479=EDGE_LOOP('',(#254));
#480=EDGE_LOOP('',(#255));
#481=EDGE_LOOP('',(#256));
#482=EDGE_LOOP('',(#257));
#483=EDGE_LOOP('',(#258));
#484=EDGE_LOOP('',(#259));
#485=EDGE_LOOP('',(#260,#261,#262,#263));
#486=FACE_BOUND('',#416,.T.);
#487=FACE_BOUND('',#417,.T.);
#488=FACE_BOUND('',#418,.T.);
#489=FACE_BOUND('',#419,.T.);
#490=FACE_BOUND('',#420,.T.);
#491=FACE_BOUND('',#421,.T.);
#492=FACE_BOUND('',#422,.T.);
#493=FACE_BOUND('',#423,.T.);
#494=FACE_BOUND('',#424,.T.);
#495=FACE_BOUND('',#425,.T.);
#496=FACE_BOUND('',#426,.T.);
#497=FACE_BOUND('',#427,.T.);
#498=FACE_BOUND('',#428,.T.);
#499=FACE_BOUND('',#429,.T.);
#500=FACE_BOUND('',#430,.T.);
#501=FACE_BOUND('',#431,.T.);
#502=FACE_BOUND('',#432,.T.);
#503=FACE_BOUND('',#433,.T.);
#504=FACE_BOUND('',#434,.T.);
#505=FACE_BOUND('',#435,.T.);
#506=FACE_BOUND('',#436,.T.);
#507=FACE_BOUND('',#437,.T.);
#508=FACE_BOUND('',#438,.T.);
#509=FACE_BOUND('',#439,.T.);
#510=FACE_BOUND('',#440,.T.);
#511=FACE_BOUND('',#441,.T.);
#512=FACE_BOUND('',#442,.T.);
#513=FACE_BOUND('',#443,.T.);
#514=FACE_BOUND('',#444,.T.);
#515=FACE_BOUND('',#445,.T.);
#516=FACE_BOUND('',#446,.T.);
#517=FACE_BOUND('',#447,.T.);
#518=FACE_BOUND('',#448,.T.);
#519=FACE_BOUND('',#449,.T.);
#520=FACE_BOUND('',#450,.T.);
#521=FACE_BOUND('',#451,.T.);
#522=FACE_BOUND('',#452,.T.);
#523=FACE_BOUND('',#453,.T.);
#524=FACE_BOUND('',#454,.T.);
#525=FACE_BOUND('',#455,.T.);
#526=FACE_BOUND('',#456,.T.);
#527=FACE_BOUND('',#457,.T.);
#528=FACE_BOUND('',#458,.T.);
#529=FACE_BOUND('',#459,.T.);
#530=FACE_BOUND('',#460,.T.);
#531=FACE_BOUND('',#461,.T.);
#532=FACE_BOUND('',#462,.T.);
#533=FACE_BOUND('',#463,.T.);
#534=FACE_BOUND('',#464,.T.);
#535=FACE_BOUND('',#465,.T.);
#536=FACE_BOUND('',#466,.T.);
#537=FACE_BOUND('',#467,.T.);
#538=FACE_BOUND('',#468,.T.);
#539=FACE_BOUND('',#469,.T.);
#540=FACE_BOUND('',#470,.T.);
#541=FACE_BOUND('',#471,.T.);
#542=FACE_BOUND('',#472,.T.);
#543=FACE_BOUND('',#473,.T.);
#544=FACE_BOUND('',#474,.T.);
#545=FACE_BOUND('',#475,.T.);
#546=FACE_BOUND('',#476,.T.);
#547=FACE_BOUND('',#477,.T.);
#548=FACE_BOUND('',#478,.T.);
#549=FACE_BOUND('',#479,.T.);
#550=FACE_BOUND('',#480,.T.);
#551=FACE_BOUND('',#481,.T.);
#552=FACE_BOUND('',#482,.T.);
#553=FACE_BOUND('',#483,.T.);
#554=FACE_BOUND('',#484,.T.);
#555=FACE_BOUND('',#485,.T.);
#556=PLANE('',#637);
#557=PLANE('',#640);
#558=PLANE('',#643);
#559=PLANE('',#648);
#560=PLANE('',#653);
#561=PLANE('',#658);
#562=PLANE('',#659);
#563=PLANE('',#662);
#564=PLANE('',#665);
#565=PLANE('',#668);
#566=PLANE('',#671);
#567=PLANE('',#672);
#568=PLANE('',#673);
#569=PLANE('',#674);
#570=PLANE('',#675);
#571=PLANE('',#676);
#572=PLANE('',#677);
#573=PLANE('',#678);
#574=PLANE('',#679);
#575=PLANE('',#680);
#576=PLANE('',#681);
#577=PLANE('',#684);
#578=PLANE('',#687);
#579=PLANE('',#690);
#580=PLANE('',#693);
#581=PLANE('',#694);
#582=PLANE('',#695);
#583=PLANE('',#700);
#584=ADVANCED_FACE('',(#486,#487,#488),#556,.F.);
#585=ADVANCED_FACE('',(#489,#490,#491),#557,.F.);
#586=ADVANCED_FACE('',(#492,#493,#494,#495,#496),#558,.F.);
#587=ADVANCED_FACE('',(#497,#498,#499,#500,#501,#502,#503),#559,.T.);
#588=ADVANCED_FACE('',(#504,#505,#506,#507,#508),#560,.F.);
#589=ADVANCED_FACE('',(#509),#561,.T.);
#590=ADVANCED_FACE('',(#510),#562,.F.);
#591=ADVANCED_FACE('',(#511,#512),#12,.F.);
#592=ADVANCED_FACE('',(#513),#563,.T.);
#593=ADVANCED_FACE('',(#514,#515),#13,.F.);
#594=ADVANCED_FACE('',(#516),#564,.T.);
#595=ADVANCED_FACE('',(#517,#518),#14,.F.);
#596=ADVANCED_FACE('',(#519),#565,.T.);
#597=ADVANCED_FACE('',(#520,#521),#15,.F.);
#598=ADVANCED_FACE('',(#522),#566,.T.);
#599=ADVANCED_FACE('',(#523),#567,.T.);
#600=ADVANCED_FACE('',(#524),#568,.F.);
#601=ADVANCED_FACE('',(#525),#569,.F.);
#602=ADVANCED_FACE('',(#526),#570,.T.);
#603=ADVANCED_FACE('',(#527),#571,.T.);
#604=ADVANCED_FACE('',(#528),#572,.T.);
#605=ADVANCED_FACE('',(#529),#573,.F.);
#606=ADVANCED_FACE('',(#530),#574,.F.);
#607=ADVANCED_FACE('',(#531),#575,.T.);
#608=ADVANCED_FACE('',(#532),#576,.T.);
#609=ADVANCED_FACE('',(#533,#534),#16,.F.);
#610=ADVANCED_FACE('',(#535),#577,.T.);
#611=ADVANCED_FACE('',(#536,#537),#17,.F.);
#612=ADVANCED_FACE('',(#538),#578,.T.);
#613=ADVANCED_FACE('',(#539,#540),#18,.F.);
#614=ADVANCED_FACE('',(#541),#579,.T.);
#615=ADVANCED_FACE('',(#542,#543),#19,.F.);
#616=ADVANCED_FACE('',(#544),#580,.T.);
#617=ADVANCED_FACE('',(#545),#581,.F.);
#618=ADVANCED_FACE('',(#546),#582,.T.);
#619=ADVANCED_FACE('',(#547,#548),#20,.F.);
#620=ADVANCED_FACE('',(#549,#550),#21,.F.);
#621=ADVANCED_FACE('',(#551,#552),#22,.F.);
#622=ADVANCED_FACE('',(#553,#554),#23,.F.);
#623=ADVANCED_FACE('',(#555),#583,.F.);
#624=CLOSED_SHELL('',(#584,#585,#586,#587,#588,#589,#590,#591,#592,#593,
#594,#595,#596,#597,#598,#599,#600,#601,#602,#603,#604,#605,#606,#607,#608,
#609,#610,#611,#612,#613,#614,#615,#616,#617,#618,#619,#620,#621,#622,#623));
#625=STYLED_ITEM('',(#626),#633);
#626=PRESENTATION_STYLE_ASSIGNMENT((#627));
#627=SURFACE_STYLE_USAGE(.BOTH.,#628);
#628=SURFACE_SIDE_STYLE('',(#629));
#629=SURFACE_STYLE_FILL_AREA(#630);
#630=FILL_AREA_STYLE('',(#631));
#631=FILL_AREA_STYLE_COLOUR('',#632);
#632=COLOUR_RGB('',0.615686274509804,0.811764705882353,0.929411764705882);
#633=MANIFOLD_SOLID_BREP('Part 1',#624);
#634=SHAPE_DEFINITION_REPRESENTATION(#1054,#635);
#635=SHAPE_REPRESENTATION('Part 1',(#636),#1049);
#636=AXIS2_PLACEMENT_3D('',#879,#701,#702);
#637=AXIS2_PLACEMENT_3D('',#880,#703,#704);
#638=AXIS2_PLACEMENT_3D('',#881,#705,#706);
#639=AXIS2_PLACEMENT_3D('',#891,#711,#712);
#640=AXIS2_PLACEMENT_3D('',#893,#713,#714);
#641=AXIS2_PLACEMENT_3D('',#902,#719,#720);
#642=AXIS2_PLACEMENT_3D('',#904,#721,#722);
#643=AXIS2_PLACEMENT_3D('',#906,#723,#724);
#644=AXIS2_PLACEMENT_3D('',#907,#725,#726);
#645=AXIS2_PLACEMENT_3D('',#909,#727,#728);
#646=AXIS2_PLACEMENT_3D('',#919,#733,#734);
#647=AXIS2_PLACEMENT_3D('',#921,#735,#736);
#648=AXIS2_PLACEMENT_3D('',#923,#737,#738);
#649=AXIS2_PLACEMENT_3D('',#940,#747,#748);
#650=AXIS2_PLACEMENT_3D('',#942,#749,#750);
#651=AXIS2_PLACEMENT_3D('',#944,#751,#752);
#652=AXIS2_PLACEMENT_3D('',#946,#753,#754);
#653=AXIS2_PLACEMENT_3D('',#953,#758,#759);
#654=AXIS2_PLACEMENT_3D('',#954,#760,#761);
#655=AXIS2_PLACEMENT_3D('',#956,#762,#763);
#656=AXIS2_PLACEMENT_3D('',#958,#764,#765);
#657=AXIS2_PLACEMENT_3D('',#960,#766,#767);
#658=AXIS2_PLACEMENT_3D('',#967,#771,#772);
#659=AXIS2_PLACEMENT_3D('',#971,#776,#777);
#660=AXIS2_PLACEMENT_3D('',#975,#781,#782);
#661=AXIS2_PLACEMENT_3D('',#976,#783,#784);
#662=AXIS2_PLACEMENT_3D('',#978,#785,#786);
#663=AXIS2_PLACEMENT_3D('',#979,#787,#788);
#664=AXIS2_PLACEMENT_3D('',#980,#789,#790);
#665=AXIS2_PLACEMENT_3D('',#982,#791,#792);
#666=AXIS2_PLACEMENT_3D('',#983,#793,#794);
#667=AXIS2_PLACEMENT_3D('',#984,#795,#796);
#668=AXIS2_PLACEMENT_3D('',#986,#797,#798);
#669=AXIS2_PLACEMENT_3D('',#987,#799,#800);
#670=AXIS2_PLACEMENT_3D('',#988,#801,#802);
#671=AXIS2_PLACEMENT_3D('',#990,#803,#804);
#672=AXIS2_PLACEMENT_3D('',#991,#805,#806);
#673=AXIS2_PLACEMENT_3D('',#997,#810,#811);
#674=AXIS2_PLACEMENT_3D('',#1001,#814,#815);
#675=AXIS2_PLACEMENT_3D('',#1005,#818,#819);
#676=AXIS2_PLACEMENT_3D('',#1007,#821,#822);
#677=AXIS2_PLACEMENT_3D('',#1008,#823,#824);
#678=AXIS2_PLACEMENT_3D('',#1014,#828,#829);
#679=AXIS2_PLACEMENT_3D('',#1018,#832,#833);
#680=AXIS2_PLACEMENT_3D('',#1022,#836,#837);
#681=AXIS2_PLACEMENT_3D('',#1024,#839,#840);
#682=AXIS2_PLACEMENT_3D('',#1025,#841,#842);
#683=AXIS2_PLACEMENT_3D('',#1026,#843,#844);
#684=AXIS2_PLACEMENT_3D('',#1028,#845,#846);
#685=AXIS2_PLACEMENT_3D('',#1029,#847,#848);
#686=AXIS2_PLACEMENT_3D('',#1030,#849,#850);
#687=AXIS2_PLACEMENT_3D('',#1032,#851,#852);
#688=AXIS2_PLACEMENT_3D('',#1033,#853,#854);
#689=AXIS2_PLACEMENT_3D('',#1034,#855,#856);
#690=AXIS2_PLACEMENT_3D('',#1036,#857,#858);
#691=AXIS2_PLACEMENT_3D('',#1037,#859,#860);
#692=AXIS2_PLACEMENT_3D('',#1038,#861,#862);
#693=AXIS2_PLACEMENT_3D('',#1040,#863,#864);
#694=AXIS2_PLACEMENT_3D('',#1041,#865,#866);
#695=AXIS2_PLACEMENT_3D('',#1042,#867,#868);
#696=AXIS2_PLACEMENT_3D('',#1043,#869,#870);
#697=AXIS2_PLACEMENT_3D('',#1044,#871,#872);
#698=AXIS2_PLACEMENT_3D('',#1045,#873,#874);
#699=AXIS2_PLACEMENT_3D('',#1046,#875,#876);
#700=AXIS2_PLACEMENT_3D('',#1047,#877,#878);
#701=DIRECTION('',(0.,0.,1.));
#702=DIRECTION('',(1.,0.,0.));
#703=DIRECTION('',(1.,0.,0.));
#704=DIRECTION('',(0.,0.,-1.));
#705=DIRECTION('',(-1.,0.,0.));
#706=DIRECTION('',(0.,0.,1.));
#707=DIRECTION('',(0.,-1.,0.));
#708=DIRECTION('',(0.,0.,1.));
#709=DIRECTION('',(0.,1.,0.));
#710=DIRECTION('',(0.,0.,1.));
#711=DIRECTION('',(1.,0.,0.));
#712=DIRECTION('',(0.,0.,1.));
#713=DIRECTION('',(1.,0.,0.));
#714=DIRECTION('',(0.,0.,-1.));
#715=DIRECTION('',(0.,0.,1.));
#716=DIRECTION('',(0.,-1.,0.));
#717=DIRECTION('',(0.,0.,1.));
#718=DIRECTION('',(0.,1.,0.));
#719=DIRECTION('',(1.,0.,0.));
#720=DIRECTION('',(0.,0.,1.));
#721=DIRECTION('',(-1.,0.,0.));
#722=DIRECTION('',(0.,0.,1.));
#723=DIRECTION('',(-1.,0.,0.));
#724=DIRECTION('',(0.,0.,1.));
#725=DIRECTION('',(-1.,0.,0.));
#726=DIRECTION('',(0.,0.,1.));
#727=DIRECTION('',(-1.,0.,0.));
#728=DIRECTION('',(0.,0.,1.));
#729=DIRECTION('',(0.,0.,1.));
#730=DIRECTION('',(0.,1.,0.));
#731=DIRECTION('',(0.,0.,1.));
#732=DIRECTION('',(0.,-1.,0.));
#733=DIRECTION('',(-1.,0.,0.));
#734=DIRECTION('',(0.,0.,1.));
#735=DIRECTION('',(-1.,0.,0.));
#736=DIRECTION('',(0.,0.,1.));
#737=DIRECTION('',(0.,-1.,0.));
#738=DIRECTION('',(1.,0.,0.));
#739=DIRECTION('',(0.,0.,-1.));
#740=DIRECTION('',(1.,0.,0.));
#741=DIRECTION('',(0.,0.,-1.));
#742=DIRECTION('',(1.,0.,0.));
#743=DIRECTION('',(0.,0.,-1.));
#744=DIRECTION('',(1.,0.,0.));
#745=DIRECTION('',(0.,0.,-1.));
#746=DIRECTION('',(1.,0.,0.));
#747=DIRECTION('',(0.,-1.,0.));
#748=DIRECTION('',(0.,0.,-1.));
#749=DIRECTION('',(0.,-1.,0.));
#750=DIRECTION('',(0.,0.,-1.));
#751=DIRECTION('',(0.,-1.,0.));
#752=DIRECTION('',(0.,0.,-1.));
#753=DIRECTION('',(0.,-1.,0.));
#754=DIRECTION('',(0.,0.,-1.));
#755=DIRECTION('',(1.,0.,0.));
#756=DIRECTION('',(1.,0.,0.));
#757=DIRECTION('',(4.56506177888634E-17,0.,-1.));
#758=DIRECTION('',(0.,-1.,0.));
#759=DIRECTION('',(1.,0.,0.));
#760=DIRECTION('',(0.,1.,0.));
#761=DIRECTION('',(0.,0.,1.));
#762=DIRECTION('',(0.,1.,0.));
#763=DIRECTION('',(0.,0.,1.));
#764=DIRECTION('',(0.,1.,0.));
#765=DIRECTION('',(0.,0.,1.));
#766=DIRECTION('',(0.,1.,0.));
#767=DIRECTION('',(0.,0.,1.));
#768=DIRECTION('',(1.,0.,0.));
#769=DIRECTION('',(4.56506177888634E-17,0.,-1.));
#770=DIRECTION('',(1.,0.,0.));
#771=DIRECTION('',(0.,0.,1.));
#772=DIRECTION('',(1.,0.,0.));
#773=DIRECTION('',(1.,0.,0.));
#774=DIRECTION('',(1.,0.,0.));
#775=DIRECTION('',(0.,1.,0.));
#776=DIRECTION('',(0.,0.,1.));
#777=DIRECTION('',(1.,0.,0.));
#778=DIRECTION('',(-1.,0.,0.));
#779=DIRECTION('',(-1.,0.,0.));
#780=DIRECTION('',(0.,1.,0.));
#781=DIRECTION('',(0.,-1.,0.));
#782=DIRECTION('',(0.,0.,-1.));
#783=DIRECTION('',(0.,-1.,0.));
#784=DIRECTION('',(0.,0.,-1.));
#785=DIRECTION('',(0.,-1.,0.));
#786=DIRECTION('',(1.,0.,0.));
#787=DIRECTION('',(0.,-1.,0.));
#788=DIRECTION('',(0.,0.,-1.));
#789=DIRECTION('',(0.,-1.,0.));
#790=DIRECTION('',(0.,0.,-1.));
#791=DIRECTION('',(0.,-1.,0.));
#792=DIRECTION('',(1.,0.,0.));
#793=DIRECTION('',(0.,-1.,0.));
#794=DIRECTION('',(0.,0.,-1.));
#795=DIRECTION('',(0.,-1.,0.));
#796=DIRECTION('',(0.,0.,-1.));
#797=DIRECTION('',(0.,-1.,0.));
#798=DIRECTION('',(1.,0.,0.));
#799=DIRECTION('',(0.,-1.,0.));
#800=DIRECTION('',(0.,0.,-1.));
#801=DIRECTION('',(0.,-1.,0.));
#802=DIRECTION('',(0.,0.,-1.));
#803=DIRECTION('',(0.,-1.,0.));
#804=DIRECTION('',(1.,0.,0.));
#805=DIRECTION('',(0.,0.,1.));
#806=DIRECTION('',(1.,0.,0.));
#807=DIRECTION('',(0.,1.,0.));
#808=DIRECTION('',(1.,0.,0.));
#809=DIRECTION('',(0.,1.,0.));
#810=DIRECTION('',(1.,0.,0.));
#811=DIRECTION('',(0.,0.,-1.));
#812=DIRECTION('',(0.,1.,0.));
#813=DIRECTION('',(0.,0.,-1.));
#814=DIRECTION('',(0.,0.,1.));
#815=DIRECTION('',(1.,0.,0.));
#816=DIRECTION('',(0.,1.,0.));
#817=DIRECTION('',(1.,0.,0.));
#818=DIRECTION('',(1.,0.,0.));
#819=DIRECTION('',(0.,0.,-1.));
#820=DIRECTION('',(0.,0.,-1.));
#821=DIRECTION('',(0.,-1.,0.));
#822=DIRECTION('',(1.,0.,0.));
#823=DIRECTION('',(0.,0.,1.));
#824=DIRECTION('',(1.,0.,0.));
#825=DIRECTION('',(0.,1.,0.));
#826=DIRECTION('',(1.,0.,0.));
#827=DIRECTION('',(0.,1.,0.));
#828=DIRECTION('',(1.,0.,0.));
#829=DIRECTION('',(0.,0.,-1.));
#830=DIRECTION('',(0.,1.,0.));
#831=DIRECTION('',(0.,0.,-1.));
#832=DIRECTION('',(0.,0.,1.));
#833=DIRECTION('',(1.,0.,0.));
#834=DIRECTION('',(0.,1.,0.));
#835=DIRECTION('',(1.,0.,0.));
#836=DIRECTION('',(1.,0.,0.));
#837=DIRECTION('',(0.,0.,-1.));
#838=DIRECTION('',(0.,0.,-1.));
#839=DIRECTION('',(0.,-1.,0.));
#840=DIRECTION('',(1.,0.,0.));
#841=DIRECTION('',(0.,1.,0.));
#842=DIRECTION('',(0.,0.,1.));
#843=DIRECTION('',(0.,1.,0.));
#844=DIRECTION('',(0.,0.,1.));
#845=DIRECTION('',(0.,1.,0.));
#846=DIRECTION('',(-1.,0.,0.));
#847=DIRECTION('',(0.,1.,0.));
#848=DIRECTION('',(0.,0.,1.));
#849=DIRECTION('',(0.,1.,0.));
#850=DIRECTION('',(0.,0.,1.));
#851=DIRECTION('',(0.,1.,0.));
#852=DIRECTION('',(-1.,0.,0.));
#853=DIRECTION('',(0.,1.,0.));
#854=DIRECTION('',(0.,0.,1.));
#855=DIRECTION('',(0.,1.,0.));
#856=DIRECTION('',(0.,0.,1.));
#857=DIRECTION('',(0.,1.,0.));
#858=DIRECTION('',(-1.,0.,0.));
#859=DIRECTION('',(0.,1.,0.));
#860=DIRECTION('',(0.,0.,1.));
#861=DIRECTION('',(0.,1.,0.));
#862=DIRECTION('',(0.,0.,1.));
#863=DIRECTION('',(0.,1.,0.));
#864=DIRECTION('',(-1.,0.,0.));
#865=DIRECTION('',(0.,-1.,0.));
#866=DIRECTION('',(0.,0.,-1.));
#867=DIRECTION('',(0.,-1.,0.));
#868=DIRECTION('',(0.,0.,-1.));
#869=DIRECTION('',(-1.,0.,0.));
#870=DIRECTION('',(0.,0.,1.));
#871=DIRECTION('',(-1.,0.,0.));
#872=DIRECTION('',(0.,0.,1.));
#873=DIRECTION('',(-1.,0.,0.));
#874=DIRECTION('',(0.,0.,1.));
#875=DIRECTION('',(-1.,0.,0.));
#876=DIRECTION('',(0.,0.,1.));
#877=DIRECTION('',(1.,0.,4.56506177888633E-17));
#878=DIRECTION('',(4.56506177888634E-17,0.,-1.));
#879=CARTESIAN_POINT('',(0.,0.,0.));
#880=CARTESIAN_POINT('',(0.0624654746083649,-0.00635,-0.0456732059676647));
#881=CARTESIAN_POINT('',(0.0624654746083649,0.00496290344744921,0.0217287931591273));
#882=CARTESIAN_POINT('',(0.0624654746083649,0.00496290344744921,0.0232781931591273));
#883=CARTESIAN_POINT('',(0.0624654746083649,-0.00635,-0.0456712059676647));
#884=CARTESIAN_POINT('',(0.0624654746083649,0.009652,-0.0456712059676647));
#885=CARTESIAN_POINT('',(0.0624654746083649,0.,-0.0456712059676647));
#886=CARTESIAN_POINT('',(0.0624654746083649,0.,-0.00767120596766472));
#887=CARTESIAN_POINT('',(0.0624654746083649,0.,0.0303287940323353));
#888=CARTESIAN_POINT('',(0.0624654746083649,-0.00635,0.0303287940323353));
#889=CARTESIAN_POINT('',(0.0624654746083649,0.009652,0.0303287940323353));
#890=CARTESIAN_POINT('',(0.0624654746083649,0.009652,-0.0456732059676647));
#891=CARTESIAN_POINT('',(0.0624654746083649,0.00496290344744921,-0.0370712050944567));
#892=CARTESIAN_POINT('',(0.0624654746083649,0.00496290344744921,-0.0355218050944567));
#893=CARTESIAN_POINT('',(0.0624654746083649,-0.00635,-0.0456732059676647));
#894=CARTESIAN_POINT('',(0.0624654746083649,-0.0127,-0.00767120596766472));
#895=CARTESIAN_POINT('',(0.0624654746083649,-0.0127,-0.0456712059676647));
#896=CARTESIAN_POINT('',(0.0624654746083649,-0.0127,0.0303287940323353));
#897=CARTESIAN_POINT('',(0.0624654746083649,-0.00635,-0.0456712059676647));
#898=CARTESIAN_POINT('',(0.0624654746083649,-0.022352,-0.0456712059676647));
#899=CARTESIAN_POINT('',(0.0624654746083649,-0.022352,-0.0456732059676647));
#900=CARTESIAN_POINT('',(0.0624654746083649,-0.022352,0.0303287940323353));
#901=CARTESIAN_POINT('',(0.0624654746083649,-0.00635,0.0303287940323353));
#902=CARTESIAN_POINT('',(0.0624654746083649,-0.0180693548172712,0.0217287931591273));
#903=CARTESIAN_POINT('',(0.0624654746083649,-0.0180693548172712,0.0232781931591273));
#904=CARTESIAN_POINT('',(0.0624654746083649,-0.0180693548172712,-0.0370712050944567));
#905=CARTESIAN_POINT('',(0.0624654746083649,-0.0180693548172712,-0.0355218050944567));
#906=CARTESIAN_POINT('',(0.0688154746083649,-0.00635,-0.0456732059676647));
#907=CARTESIAN_POINT('',(0.0688154746083649,-0.0180693548172712,-0.0370712050944567));
#908=CARTESIAN_POINT('',(0.0688154746083649,-0.0180693548172712,-0.0355218050944567));
#909=CARTESIAN_POINT('',(0.0688154746083649,0.00496290344744921,0.0217287931591273));
#910=CARTESIAN_POINT('',(0.0688154746083649,0.00496290344744921,0.0232781931591273));
#911=CARTESIAN_POINT('',(0.0688154746083649,-0.022352,-0.0456732059676647));
#912=CARTESIAN_POINT('',(0.0688154746083649,-0.022352,-0.0456712059676647));
#913=CARTESIAN_POINT('',(0.0688154746083649,-0.022352,0.0303287940323353));
#914=CARTESIAN_POINT('',(0.0688154746083649,-0.00635,-0.0456712059676647));
#915=CARTESIAN_POINT('',(0.0688154746083649,0.009652,-0.0456712059676647));
#916=CARTESIAN_POINT('',(0.0688154746083649,0.009652,-0.0456732059676647));
#917=CARTESIAN_POINT('',(0.0688154746083649,0.009652,0.0303287940323353));
#918=CARTESIAN_POINT('',(0.0688154746083649,-0.00635,0.0303287940323353));
#919=CARTESIAN_POINT('',(0.0688154746083649,-0.0180693548172712,0.0217287931591273));
#920=CARTESIAN_POINT('',(0.0688154746083649,-0.0180693548172712,0.0232781931591273));
#921=CARTESIAN_POINT('',(0.0688154746083649,0.00496290344744921,-0.0370712050944567));
#922=CARTESIAN_POINT('',(0.0688154746083649,0.00496290344744921,-0.0355218050944567));
#923=CARTESIAN_POINT('',(0.0451342862248421,-0.0127,-0.00767120596766472));
#924=CARTESIAN_POINT('',(-0.00150061774746126,-0.0127,-0.0347685603379323));
#925=CARTESIAN_POINT('',(-0.00150061774746126,-0.0127,-0.0326712059676647));
#926=CARTESIAN_POINT('',(-0.00150061774746126,-0.0127,-0.0368659147081999));
#927=CARTESIAN_POINT('',(0.00398666687453385,-0.0127,-0.0326712059676647));
#928=CARTESIAN_POINT('',(0.00947395149652897,-0.0127,-0.0326712059676647));
#929=CARTESIAN_POINT('',(0.00947395149652897,-0.0127,-0.0347685603379323));
#930=CARTESIAN_POINT('',(0.00947395149652897,-0.0127,-0.0368659147081999));
#931=CARTESIAN_POINT('',(0.00398666687453385,-0.0127,-0.0368659147081999));
#932=CARTESIAN_POINT('',(0.0407740878907552,-0.0127,-0.0347685603379323));
#933=CARTESIAN_POINT('',(0.0407740878907552,-0.0127,-0.0326712059676647));
#934=CARTESIAN_POINT('',(0.0407740878907552,-0.0127,-0.0368659147081999));
#935=CARTESIAN_POINT('',(0.0457830669867552,-0.0127,-0.0326712059676647));
#936=CARTESIAN_POINT('',(0.0507920460827552,-0.0127,-0.0326712059676647));
#937=CARTESIAN_POINT('',(0.0507920460827552,-0.0127,-0.0347685603379323));
#938=CARTESIAN_POINT('',(0.0507920460827552,-0.0127,-0.0368659147081999));
#939=CARTESIAN_POINT('',(0.0457830669867552,-0.0127,-0.0368659147081999));
#940=CARTESIAN_POINT('',(0.00156428622484208,-0.0127,0.0211047940323353));
#941=CARTESIAN_POINT('',(0.00156428622484208,-0.0127,0.0195807940323353));
#942=CARTESIAN_POINT('',(0.0552516745482873,-0.0127,0.00537475616813229));
#943=CARTESIAN_POINT('',(0.0552516745482873,-0.0127,0.00385075616813229));
#944=CARTESIAN_POINT('',(0.0552402862248421,-0.0127,-0.0224789051928394));
#945=CARTESIAN_POINT('',(0.0552402862248421,-0.0127,-0.0240029051928395));
#946=CARTESIAN_POINT('',(0.00156428622484209,-0.0127,-0.0274372059676647));
#947=CARTESIAN_POINT('',(0.00156428622484209,-0.0127,-0.0289612059676648));
#948=CARTESIAN_POINT('',(0.0451342862248421,-0.0127,-0.0456712059676647));
#949=CARTESIAN_POINT('',(-0.027565713775158,-0.0127,-0.0456712059676647));
#950=CARTESIAN_POINT('',(0.0451342862248421,-0.0127,0.0303287940323353));
#951=CARTESIAN_POINT('',(-0.027565713775158,-0.0127,0.0303287940323353));
#952=CARTESIAN_POINT('',(-0.027565713775158,-0.0127,-0.00767120596766472));
#953=CARTESIAN_POINT('',(0.0451342862248421,0.,-0.00767120596766472));
#954=CARTESIAN_POINT('',(0.0483169010692042,0.,-0.0245381393901916));
#955=CARTESIAN_POINT('',(0.0483169010692042,0.,-0.0230141393901916));
#956=CARTESIAN_POINT('',(0.017675593642967,0.,-0.0245381393901916));
#957=CARTESIAN_POINT('',(0.017675593642967,0.,-0.0230141393901916));
#958=CARTESIAN_POINT('',(0.017675593642967,0.,0.024561322150729));
#959=CARTESIAN_POINT('',(0.017675593642967,0.,0.026085322150729));
#960=CARTESIAN_POINT('',(0.0482976943729952,0.,0.024561322150729));
#961=CARTESIAN_POINT('',(0.0482976943729952,0.,0.026085322150729));
#962=CARTESIAN_POINT('',(0.0451342862248421,0.,-0.0456712059676647));
#963=CARTESIAN_POINT('',(-0.027565713775158,0.,-0.0456712059676647));
#964=CARTESIAN_POINT('',(-0.027565713775158,0.,-0.00767120596766472));
#965=CARTESIAN_POINT('',(-0.027565713775158,0.,0.0303287940323353));
#966=CARTESIAN_POINT('',(0.0451342862248421,0.,0.0303287940323353));
#967=CARTESIAN_POINT('',(0.0451342862248421,-0.0127,0.0303287940323353));
#968=CARTESIAN_POINT('',(0.0656404746083649,-0.022352,0.0303287940323353));
#969=CARTESIAN_POINT('',(0.0656404746083649,0.009652,0.0303287940323353));
#970=CARTESIAN_POINT('',(-0.027565713775158,-0.0127,0.0303287940323353));
#971=CARTESIAN_POINT('',(0.0451342862248421,-0.0127,-0.0456712059676647));
#972=CARTESIAN_POINT('',(0.0656404746083649,0.009652,-0.0456712059676647));
#973=CARTESIAN_POINT('',(0.0656404746083649,-0.022352,-0.0456712059676647));
#974=CARTESIAN_POINT('',(-0.027565713775158,-0.0127,-0.0456712059676647));
#975=CARTESIAN_POINT('',(0.00156428622484208,-0.00635,0.0211047940323353));
#976=CARTESIAN_POINT('',(0.00156428622484208,-0.00635,0.0211047940323353));
#977=CARTESIAN_POINT('',(0.00156428622484208,-0.00635,0.0195807940323353));
#978=CARTESIAN_POINT('',(0.0451342862248421,-0.00635,-0.00767120596766472));
#979=CARTESIAN_POINT('',(0.0552516745482873,-0.00635,0.00537475616813229));
#980=CARTESIAN_POINT('',(0.0552516745482873,-0.00635,0.00537475616813229));
#981=CARTESIAN_POINT('',(0.0552516745482873,-0.00635,0.00385075616813229));
#982=CARTESIAN_POINT('',(0.0451342862248421,-0.00635,-0.00767120596766472));
#983=CARTESIAN_POINT('',(0.0552402862248421,-0.00635,-0.0224789051928394));
#984=CARTESIAN_POINT('',(0.0552402862248421,-0.00635,-0.0224789051928394));
#985=CARTESIAN_POINT('',(0.0552402862248421,-0.00635,-0.0240029051928395));
#986=CARTESIAN_POINT('',(0.0451342862248421,-0.00635,-0.00767120596766472));
#987=CARTESIAN_POINT('',(0.00156428622484209,-0.00635,-0.0274372059676647));
#988=CARTESIAN_POINT('',(0.00156428622484209,-0.00635,-0.0274372059676647));
#989=CARTESIAN_POINT('',(0.00156428622484209,-0.00635,-0.0289612059676648));
#990=CARTESIAN_POINT('',(0.0451342862248421,-0.00635,-0.00767120596766472));
#991=CARTESIAN_POINT('',(0.0457830669867552,-0.0152,-0.0326712059676647));
#992=CARTESIAN_POINT('',(0.0407740878907552,-0.0152,-0.0326712059676647));
#993=CARTESIAN_POINT('',(0.0407740878907552,-0.0152,-0.0326712059676647));
#994=CARTESIAN_POINT('',(0.0457830669867552,-0.0152,-0.0326712059676647));
#995=CARTESIAN_POINT('',(0.0507920460827552,-0.0152,-0.0326712059676647));
#996=CARTESIAN_POINT('',(0.0507920460827552,-0.0152,-0.0326712059676647));
#997=CARTESIAN_POINT('',(0.0407740878907552,-0.0152,-0.0347685603379323));
#998=CARTESIAN_POINT('',(0.0407740878907552,-0.0152,-0.0368659147081999));
#999=CARTESIAN_POINT('',(0.0407740878907552,-0.0152,-0.0368659147081999));
#1000=CARTESIAN_POINT('',(0.0407740878907552,-0.0152,-0.0347685603379323));
#1001=CARTESIAN_POINT('',(0.0457830669867552,-0.0152,-0.0368659147081999));
#1002=CARTESIAN_POINT('',(0.0507920460827552,-0.0152,-0.0368659147081999));
#1003=CARTESIAN_POINT('',(0.0507920460827552,-0.0152,-0.0368659147081999));
#1004=CARTESIAN_POINT('',(0.0457830669867552,-0.0152,-0.0368659147081999));
#1005=CARTESIAN_POINT('',(0.0507920460827552,-0.0152,-0.0347685603379323));
#1006=CARTESIAN_POINT('',(0.0507920460827552,-0.0152,-0.0347685603379323));
#1007=CARTESIAN_POINT('',(0.0451342862248421,-0.0152,-0.00767120596766472));
#1008=CARTESIAN_POINT('',(0.00398666687453385,-0.0152,-0.0326712059676647));
#1009=CARTESIAN_POINT('',(-0.00150061774746126,-0.0152,-0.0326712059676647));
#1010=CARTESIAN_POINT('',(-0.00150061774746126,-0.0152,-0.0326712059676647));
#1011=CARTESIAN_POINT('',(0.00398666687453385,-0.0152,-0.0326712059676647));
#1012=CARTESIAN_POINT('',(0.00947395149652897,-0.0152,-0.0326712059676647));
#1013=CARTESIAN_POINT('',(0.00947395149652897,-0.0152,-0.0326712059676647));
#1014=CARTESIAN_POINT('',(-0.00150061774746126,-0.0152,-0.0347685603379323));
#1015=CARTESIAN_POINT('',(-0.00150061774746126,-0.0152,-0.0368659147081999));
#1016=CARTESIAN_POINT('',(-0.00150061774746126,-0.0152,-0.0368659147081999));
#1017=CARTESIAN_POINT('',(-0.00150061774746126,-0.0152,-0.0347685603379323));
#1018=CARTESIAN_POINT('',(0.00398666687453385,-0.0152,-0.0368659147081999));
#1019=CARTESIAN_POINT('',(0.00947395149652897,-0.0152,-0.0368659147081999));
#1020=CARTESIAN_POINT('',(0.00947395149652897,-0.0152,-0.0368659147081999));
#1021=CARTESIAN_POINT('',(0.00398666687453385,-0.0152,-0.0368659147081999));
#1022=CARTESIAN_POINT('',(0.00947395149652897,-0.0152,-0.0347685603379323));
#1023=CARTESIAN_POINT('',(0.00947395149652897,-0.0152,-0.0347685603379323));
#1024=CARTESIAN_POINT('',(0.0451342862248421,-0.0152,-0.00767120596766472));
#1025=CARTESIAN_POINT('',(0.0482976943729952,-0.00635,0.024561322150729));
#1026=CARTESIAN_POINT('',(0.0482976943729952,-0.00635,0.024561322150729));
#1027=CARTESIAN_POINT('',(0.0482976943729952,-0.00635,0.026085322150729));
#1028=CARTESIAN_POINT('',(0.0451342862248421,-0.00635,-0.00767120596766472));
#1029=CARTESIAN_POINT('',(0.017675593642967,-0.00635,0.024561322150729));
#1030=CARTESIAN_POINT('',(0.017675593642967,-0.00635,0.024561322150729));
#1031=CARTESIAN_POINT('',(0.017675593642967,-0.00635,0.026085322150729));
#1032=CARTESIAN_POINT('',(0.0451342862248421,-0.00635,-0.00767120596766472));
#1033=CARTESIAN_POINT('',(0.017675593642967,-0.00635,-0.0245381393901916));
#1034=CARTESIAN_POINT('',(0.017675593642967,-0.00635,-0.0245381393901916));
#1035=CARTESIAN_POINT('',(0.017675593642967,-0.00635,-0.0230141393901916));
#1036=CARTESIAN_POINT('',(0.0451342862248421,-0.00635,-0.00767120596766472));
#1037=CARTESIAN_POINT('',(0.0483169010692042,-0.00635,-0.0245381393901916));
#1038=CARTESIAN_POINT('',(0.0483169010692042,-0.00635,-0.0245381393901916));
#1039=CARTESIAN_POINT('',(0.0483169010692042,-0.00635,-0.0230141393901916));
#1040=CARTESIAN_POINT('',(0.0451342862248421,-0.00635,-0.00767120596766472));
#1041=CARTESIAN_POINT('',(0.0656404746083649,0.009652,-0.0456732059676647));
#1042=CARTESIAN_POINT('',(0.0656404746083649,-0.022352,-0.0456732059676647));
#1043=CARTESIAN_POINT('',(0.179960781371716,0.00496290344744921,0.0217287931591273));
#1044=CARTESIAN_POINT('',(0.179960781371716,-0.0180693548172712,0.0217287931591273));
#1045=CARTESIAN_POINT('',(0.179960781371716,-0.0180693548172712,-0.0370712050944567));
#1046=CARTESIAN_POINT('',(0.179960781371716,0.00496290344744921,-0.0370712050944567));
#1047=CARTESIAN_POINT('',(-0.027565713775158,-0.0127,-0.00767120596766472));
#1048=MECHANICAL_DESIGN_GEOMETRIC_PRESENTATION_REPRESENTATION('',(#625),
#1049);
#1049=(
GEOMETRIC_REPRESENTATION_CONTEXT(3)
GLOBAL_UNCERTAINTY_ASSIGNED_CONTEXT((#1050))
GLOBAL_UNIT_ASSIGNED_CONTEXT((#1053,#1052,#1051))
REPRESENTATION_CONTEXT('Part 1','TOP_LEVEL_ASSEMBLY_PART')
);
#1050=UNCERTAINTY_MEASURE_WITH_UNIT(LENGTH_MEASURE(1.E-8),#1053,
'DISTANCE_ACCURACY_VALUE','Maximum Tolerance applied to model');
#1051=(
NAMED_UNIT(*)
SI_UNIT($,.STERADIAN.)
SOLID_ANGLE_UNIT()
);
#1052=(
NAMED_UNIT(*)
PLANE_ANGLE_UNIT()
SI_UNIT($,.RADIAN.)
);
#1053=(
LENGTH_UNIT()
NAMED_UNIT(*)
SI_UNIT($,.METRE.)
);
#1054=PRODUCT_DEFINITION_SHAPE('','',#1055);
#1055=PRODUCT_DEFINITION('','',#1057,#1056);
#1056=PRODUCT_DEFINITION_CONTEXT('',#1063,'design');
#1057=PRODUCT_DEFINITION_FORMATION_WITH_SPECIFIED_SOURCE('','',#1059,
 .NOT_KNOWN.);
#1058=PRODUCT_RELATED_PRODUCT_CATEGORY('','',(#1059));
#1059=PRODUCT('Part 1','Part 1','Part 1',(#1061));
#1060=PRODUCT_CATEGORY('','');
#1061=PRODUCT_CONTEXT('',#1063,'mechanical');
#1062=APPLICATION_PROTOCOL_DEFINITION('international standard',
'ap242_managed_model_based_3d_engineering',2020,#1063);
#1063=APPLICATION_CONTEXT('managed model based 3d engineering');
ENDSEC;
END-ISO-10303-21;
