ISO-10303-21;
HEADER;
/* Generated by software containing ST-Developer
 * from STEP Tools, Inc. (www.steptools.com) 
 */
/* OPTION: using custom renumber hook */

FILE_DESCRIPTION(
/* description */ ('STEP AP242 Edition 2',
'CAx-IF Rec.Pracs.---Representation and Presentation of Product Manufa
cturing Information (PMI)---4.0---2014-10-13',
'CAx-IF Rec.Pracs.---3D Tessellated Geometry---0.4---2014-09-14','2;1',
'CAx-IF Rec.Pracs.---User Defined Attributes---1.5---2016-08-15'),
/* implementation_level */ '2;1');

FILE_NAME(
/* name */ 'IODR cable clips',
/* time_stamp */ '2026-08-20T15:46:36Z',
/* author */ (''),
/* organization */ (''),
/* preprocessor_version */ 'ST-DEVELOPER v20',
/* originating_system */ 'ONSHAPE BY PTC INC, 1.219',
/* authorisation */ '  ');

FILE_SCHEMA (('AP242_MANAGED_MODEL_BASED_3D_ENGINEERING_MIM_LF { 1 0 10303 442 3 1 4 }'));
ENDSEC;

DATA;
#10=SHAPE_REPRESENTATION_RELATIONSHIP('','',#279,#11);
#11=ADVANCED_BREP_SHAPE_REPRESENTATION('',(#277),#461);
#12=LINE('',#401,#32);
#13=LINE('',#404,#33);
#14=LINE('',#406,#34);
#15=LINE('',#408,#35);
#16=LINE('',#410,#36);
#17=LINE('',#412,#37);
#18=LINE('',#414,#38);
#19=LINE('',#416,#39);
#20=LINE('',#418,#40);
#21=LINE('',#420,#41);
#22=LINE('',#424,#42);
#23=LINE('',#428,#43);
#24=LINE('',#430,#44);
#25=LINE('',#432,#45);
#26=LINE('',#434,#46);
#27=LINE('',#436,#47);
#28=LINE('',#438,#48);
#29=LINE('',#442,#49);
#30=LINE('',#444,#50);
#31=LINE('',#446,#51);
#32=VECTOR('',#327,1.);
#33=VECTOR('',#328,1.);
#34=VECTOR('',#329,1.);
#35=VECTOR('',#330,1.);
#36=VECTOR('',#333,1.);
#37=VECTOR('',#334,1.);
#38=VECTOR('',#335,1.);
#39=VECTOR('',#338,1.);
#40=VECTOR('',#339,1.);
#41=VECTOR('',#340,1.);
#42=VECTOR('',#345,1.);
#43=VECTOR('',#350,1.);
#44=VECTOR('',#351,1.);
#45=VECTOR('',#352,1.);
#46=VECTOR('',#355,1.);
#47=VECTOR('',#356,1.);
#48=VECTOR('',#357,1.);
#49=VECTOR('',#362,1.);
#50=VECTOR('',#363,1.);
#51=VECTOR('',#364,1.);
#52=PLANE('',#287);
#53=PLANE('',#289);
#54=PLANE('',#290);
#55=PLANE('',#294);
#56=PLANE('',#295);
#57=PLANE('',#296);
#58=PLANE('',#301);
#59=PLANE('',#302);
#60=PLANE('',#305);
#61=PLANE('',#308);
#62=ORIENTED_EDGE('',*,*,#126,.F.);
#63=ORIENTED_EDGE('',*,*,#127,.T.);
#64=ORIENTED_EDGE('',*,*,#128,.T.);
#65=ORIENTED_EDGE('',*,*,#129,.F.);
#66=ORIENTED_EDGE('',*,*,#130,.T.);
#67=ORIENTED_EDGE('',*,*,#131,.F.);
#68=ORIENTED_EDGE('',*,*,#132,.F.);
#69=ORIENTED_EDGE('',*,*,#133,.T.);
#70=ORIENTED_EDGE('',*,*,#134,.T.);
#71=ORIENTED_EDGE('',*,*,#135,.F.);
#72=ORIENTED_EDGE('',*,*,#136,.F.);
#73=ORIENTED_EDGE('',*,*,#137,.T.);
#74=ORIENTED_EDGE('',*,*,#132,.T.);
#75=ORIENTED_EDGE('',*,*,#128,.F.);
#76=ORIENTED_EDGE('',*,*,#138,.T.);
#77=ORIENTED_EDGE('',*,*,#139,.F.);
#78=ORIENTED_EDGE('',*,*,#140,.F.);
#79=ORIENTED_EDGE('',*,*,#136,.T.);
#80=ORIENTED_EDGE('',*,*,#141,.F.);
#81=ORIENTED_EDGE('',*,*,#142,.F.);
#82=ORIENTED_EDGE('',*,*,#143,.T.);
#83=ORIENTED_EDGE('',*,*,#139,.T.);
#84=ORIENTED_EDGE('',*,*,#126,.T.);
#85=ORIENTED_EDGE('',*,*,#144,.T.);
#86=ORIENTED_EDGE('',*,*,#145,.F.);
#87=ORIENTED_EDGE('',*,*,#146,.F.);
#88=ORIENTED_EDGE('',*,*,#142,.T.);
#89=ORIENTED_EDGE('',*,*,#147,.T.);
#90=ORIENTED_EDGE('',*,*,#148,.F.);
#91=ORIENTED_EDGE('',*,*,#149,.F.);
#92=ORIENTED_EDGE('',*,*,#145,.T.);
#93=ORIENTED_EDGE('',*,*,#150,.F.);
#94=ORIENTED_EDGE('',*,*,#151,.T.);
#95=ORIENTED_EDGE('',*,*,#152,.F.);
#96=ORIENTED_EDGE('',*,*,#153,.F.);
#97=ORIENTED_EDGE('',*,*,#148,.T.);
#98=ORIENTED_EDGE('',*,*,#154,.T.);
#99=ORIENTED_EDGE('',*,*,#134,.F.);
#100=ORIENTED_EDGE('',*,*,#155,.F.);
#101=ORIENTED_EDGE('',*,*,#152,.T.);
#102=ORIENTED_EDGE('',*,*,#133,.F.);
#103=ORIENTED_EDGE('',*,*,#137,.F.);
#104=ORIENTED_EDGE('',*,*,#140,.T.);
#105=ORIENTED_EDGE('',*,*,#143,.F.);
#106=ORIENTED_EDGE('',*,*,#146,.T.);
#107=ORIENTED_EDGE('',*,*,#149,.T.);
#108=ORIENTED_EDGE('',*,*,#153,.T.);
#109=ORIENTED_EDGE('',*,*,#155,.T.);
#110=ORIENTED_EDGE('',*,*,#131,.T.);
#111=ORIENTED_EDGE('',*,*,#154,.F.);
#112=ORIENTED_EDGE('',*,*,#151,.F.);
#113=ORIENTED_EDGE('',*,*,#147,.F.);
#114=ORIENTED_EDGE('',*,*,#144,.F.);
#115=ORIENTED_EDGE('',*,*,#141,.T.);
#116=ORIENTED_EDGE('',*,*,#138,.F.);
#117=ORIENTED_EDGE('',*,*,#135,.T.);
#118=ORIENTED_EDGE('',*,*,#156,.T.);
#119=ORIENTED_EDGE('',*,*,#130,.F.);
#120=ORIENTED_EDGE('',*,*,#156,.F.);
#121=ORIENTED_EDGE('',*,*,#129,.T.);
#122=ORIENTED_EDGE('',*,*,#157,.F.);
#123=ORIENTED_EDGE('',*,*,#150,.T.);
#124=ORIENTED_EDGE('',*,*,#127,.F.);
#125=ORIENTED_EDGE('',*,*,#157,.T.);
#126=EDGE_CURVE('',#158,#158,#182,.T.);
#127=EDGE_CURVE('',#159,#159,#183,.T.);
#128=EDGE_CURVE('',#160,#160,#184,.F.);
#129=EDGE_CURVE('',#161,#161,#185,.T.);
#130=EDGE_CURVE('',#162,#162,#186,.T.);
#131=EDGE_CURVE('',#163,#164,#12,.T.);
#132=EDGE_CURVE('',#165,#163,#13,.T.);
#133=EDGE_CURVE('',#165,#166,#14,.T.);
#134=EDGE_CURVE('',#166,#164,#15,.T.);
#135=EDGE_CURVE('',#167,#163,#16,.T.);
#136=EDGE_CURVE('',#168,#167,#17,.T.);
#137=EDGE_CURVE('',#168,#165,#18,.T.);
#138=EDGE_CURVE('',#167,#169,#19,.T.);
#139=EDGE_CURVE('',#170,#169,#20,.T.);
#140=EDGE_CURVE('',#168,#170,#21,.T.);
#141=EDGE_CURVE('',#171,#169,#187,.T.);
#142=EDGE_CURVE('',#172,#171,#22,.T.);
#143=EDGE_CURVE('',#172,#170,#188,.T.);
#144=EDGE_CURVE('',#171,#173,#23,.T.);
#145=EDGE_CURVE('',#174,#173,#24,.T.);
#146=EDGE_CURVE('',#172,#174,#25,.T.);
#147=EDGE_CURVE('',#173,#175,#26,.T.);
#148=EDGE_CURVE('',#176,#175,#27,.T.);
#149=EDGE_CURVE('',#174,#176,#28,.T.);
#150=EDGE_CURVE('',#177,#177,#189,.T.);
#151=EDGE_CURVE('',#175,#178,#29,.T.);
#152=EDGE_CURVE('',#179,#178,#30,.T.);
#153=EDGE_CURVE('',#176,#179,#31,.T.);
#154=EDGE_CURVE('',#178,#164,#190,.T.);
#155=EDGE_CURVE('',#179,#166,#191,.T.);
#156=EDGE_CURVE('',#180,#180,#192,.T.);
#157=EDGE_CURVE('',#181,#181,#193,.T.);
#158=VERTEX_POINT('',#390);
#159=VERTEX_POINT('',#392);
#160=VERTEX_POINT('',#395);
#161=VERTEX_POINT('',#397);
#162=VERTEX_POINT('',#400);
#163=VERTEX_POINT('',#402);
#164=VERTEX_POINT('',#403);
#165=VERTEX_POINT('',#405);
#166=VERTEX_POINT('',#407);
#167=VERTEX_POINT('',#411);
#168=VERTEX_POINT('',#413);
#169=VERTEX_POINT('',#417);
#170=VERTEX_POINT('',#419);
#171=VERTEX_POINT('',#423);
#172=VERTEX_POINT('',#425);
#173=VERTEX_POINT('',#429);
#174=VERTEX_POINT('',#431);
#175=VERTEX_POINT('',#435);
#176=VERTEX_POINT('',#437);
#177=VERTEX_POINT('',#441);
#178=VERTEX_POINT('',#443);
#179=VERTEX_POINT('',#445);
#180=VERTEX_POINT('',#454);
#181=VERTEX_POINT('',#458);
#182=CIRCLE('',#282,0.001524);
#183=CIRCLE('',#283,0.001524);
#184=CIRCLE('',#285,0.001524);
#185=CIRCLE('',#286,0.001524);
#186=CIRCLE('',#288,0.002794);
#187=CIRCLE('',#292,0.00493579290455044);
#188=CIRCLE('',#293,0.00493579290455044);
#189=CIRCLE('',#297,0.002794);
#190=CIRCLE('',#299,0.0065640745638251);
#191=CIRCLE('',#300,0.0065640745638251);
#192=CIRCLE('',#304,0.002794);
#193=CIRCLE('',#307,0.002794);
#194=EDGE_LOOP('',(#62));
#195=EDGE_LOOP('',(#63));
#196=EDGE_LOOP('',(#64));
#197=EDGE_LOOP('',(#65));
#198=EDGE_LOOP('',(#66));
#199=EDGE_LOOP('',(#67,#68,#69,#70));
#200=EDGE_LOOP('',(#71,#72,#73,#74));
#201=EDGE_LOOP('',(#75));
#202=EDGE_LOOP('',(#76,#77,#78,#79));
#203=EDGE_LOOP('',(#80,#81,#82,#83));
#204=EDGE_LOOP('',(#84));
#205=EDGE_LOOP('',(#85,#86,#87,#88));
#206=EDGE_LOOP('',(#89,#90,#91,#92));
#207=EDGE_LOOP('',(#93));
#208=EDGE_LOOP('',(#94,#95,#96,#97));
#209=EDGE_LOOP('',(#98,#99,#100,#101));
#210=EDGE_LOOP('',(#102,#103,#104,#105,#106,#107,#108,#109));
#211=EDGE_LOOP('',(#110,#111,#112,#113,#114,#115,#116,#117));
#212=EDGE_LOOP('',(#118));
#213=EDGE_LOOP('',(#119));
#214=EDGE_LOOP('',(#120));
#215=EDGE_LOOP('',(#121));
#216=EDGE_LOOP('',(#122));
#217=EDGE_LOOP('',(#123));
#218=EDGE_LOOP('',(#124));
#219=EDGE_LOOP('',(#125));
#220=FACE_BOUND('',#194,.T.);
#221=FACE_BOUND('',#195,.T.);
#222=FACE_BOUND('',#196,.T.);
#223=FACE_BOUND('',#197,.T.);
#224=FACE_BOUND('',#198,.T.);
#225=FACE_BOUND('',#199,.T.);
#226=FACE_BOUND('',#200,.T.);
#227=FACE_BOUND('',#201,.T.);
#228=FACE_BOUND('',#202,.T.);
#229=FACE_BOUND('',#203,.T.);
#230=FACE_BOUND('',#204,.T.);
#231=FACE_BOUND('',#205,.T.);
#232=FACE_BOUND('',#206,.T.);
#233=FACE_BOUND('',#207,.T.);
#234=FACE_BOUND('',#208,.T.);
#235=FACE_BOUND('',#209,.T.);
#236=FACE_BOUND('',#210,.T.);
#237=FACE_BOUND('',#211,.T.);
#238=FACE_BOUND('',#212,.T.);
#239=FACE_BOUND('',#213,.T.);
#240=FACE_BOUND('',#214,.T.);
#241=FACE_BOUND('',#215,.T.);
#242=FACE_BOUND('',#216,.T.);
#243=FACE_BOUND('',#217,.T.);
#244=FACE_BOUND('',#218,.T.);
#245=FACE_BOUND('',#219,.T.);
#246=CYLINDRICAL_SURFACE('',#281,0.001524);
#247=CYLINDRICAL_SURFACE('',#284,0.001524);
#248=CYLINDRICAL_SURFACE('',#291,0.00493579290455044);
#249=CYLINDRICAL_SURFACE('',#298,0.0065640745638251);
#250=CYLINDRICAL_SURFACE('',#303,0.002794);
#251=CYLINDRICAL_SURFACE('',#306,0.002794);
#252=ADVANCED_FACE('',(#220,#221),#246,.F.);
#253=ADVANCED_FACE('',(#222,#223),#247,.F.);
#254=ADVANCED_FACE('',(#224,#225),#52,.T.);
#255=ADVANCED_FACE('',(#226),#53,.T.);
#256=ADVANCED_FACE('',(#227,#228),#54,.F.);
#257=ADVANCED_FACE('',(#229),#248,.F.);
#258=ADVANCED_FACE('',(#230,#231),#55,.F.);
#259=ADVANCED_FACE('',(#232),#56,.F.);
#260=ADVANCED_FACE('',(#233,#234),#57,.F.);
#261=ADVANCED_FACE('',(#235),#249,.T.);
#262=ADVANCED_FACE('',(#236),#58,.T.);
#263=ADVANCED_FACE('',(#237),#59,.F.);
#264=ADVANCED_FACE('',(#238,#239),#250,.F.);
#265=ADVANCED_FACE('',(#240,#241),#60,.T.);
#266=ADVANCED_FACE('',(#242,#243),#251,.F.);
#267=ADVANCED_FACE('',(#244,#245),#61,.T.);
#268=CLOSED_SHELL('',(#252,#253,#254,#255,#256,#257,#258,#259,#260,#261,
#262,#263,#264,#265,#266,#267));
#269=STYLED_ITEM('',(#270),#277);
#270=PRESENTATION_STYLE_ASSIGNMENT((#271));
#271=SURFACE_STYLE_USAGE(.BOTH.,#272);
#272=SURFACE_SIDE_STYLE('',(#273));
#273=SURFACE_STYLE_FILL_AREA(#274);
#274=FILL_AREA_STYLE('',(#275));
#275=FILL_AREA_STYLE_COLOUR('',#276);
#276=COLOUR_RGB('',0.615686274509804,0.811764705882353,0.929411764705882);
#277=MANIFOLD_SOLID_BREP('Part 1',#268);
#278=SHAPE_DEFINITION_REPRESENTATION(#466,#279);
#279=SHAPE_REPRESENTATION('Part 1',(#280),#461);
#280=AXIS2_PLACEMENT_3D('',#387,#309,#310);
#281=AXIS2_PLACEMENT_3D('',#388,#311,#312);
#282=AXIS2_PLACEMENT_3D('',#389,#313,#314);
#283=AXIS2_PLACEMENT_3D('',#391,#315,#316);
#284=AXIS2_PLACEMENT_3D('',#393,#317,#318);
#285=AXIS2_PLACEMENT_3D('',#394,#319,#320);
#286=AXIS2_PLACEMENT_3D('',#396,#321,#322);
#287=AXIS2_PLACEMENT_3D('',#398,#323,#324);
#288=AXIS2_PLACEMENT_3D('',#399,#325,#326);
#289=AXIS2_PLACEMENT_3D('',#409,#331,#332);
#290=AXIS2_PLACEMENT_3D('',#415,#336,#337);
#291=AXIS2_PLACEMENT_3D('',#421,#341,#342);
#292=AXIS2_PLACEMENT_3D('',#422,#343,#344);
#293=AXIS2_PLACEMENT_3D('',#426,#346,#347);
#294=AXIS2_PLACEMENT_3D('',#427,#348,#349);
#295=AXIS2_PLACEMENT_3D('',#433,#353,#354);
#296=AXIS2_PLACEMENT_3D('',#439,#358,#359);
#297=AXIS2_PLACEMENT_3D('',#440,#360,#361);
#298=AXIS2_PLACEMENT_3D('',#447,#365,#366);
#299=AXIS2_PLACEMENT_3D('',#448,#367,#368);
#300=AXIS2_PLACEMENT_3D('',#449,#369,#370);
#301=AXIS2_PLACEMENT_3D('',#450,#371,#372);
#302=AXIS2_PLACEMENT_3D('',#451,#373,#374);
#303=AXIS2_PLACEMENT_3D('',#452,#375,#376);
#304=AXIS2_PLACEMENT_3D('',#453,#377,#378);
#305=AXIS2_PLACEMENT_3D('',#455,#379,#380);
#306=AXIS2_PLACEMENT_3D('',#456,#381,#382);
#307=AXIS2_PLACEMENT_3D('',#457,#383,#384);
#308=AXIS2_PLACEMENT_3D('',#459,#385,#386);
#309=DIRECTION('',(0.,0.,1.));
#310=DIRECTION('',(1.,0.,0.));
#311=DIRECTION('',(0.,1.,0.));
#312=DIRECTION('',(0.,0.,1.));
#313=DIRECTION('',(0.,1.,0.));
#314=DIRECTION('',(0.,0.,1.));
#315=DIRECTION('',(0.,1.,0.));
#316=DIRECTION('',(0.,0.,1.));
#317=DIRECTION('',(0.,1.,0.));
#318=DIRECTION('',(0.,0.,1.));
#319=DIRECTION('',(0.,1.,0.));
#320=DIRECTION('',(0.,0.,1.));
#321=DIRECTION('',(0.,-1.,0.));
#322=DIRECTION('',(0.,0.,1.));
#323=DIRECTION('',(0.,1.,0.));
#324=DIRECTION('',(0.,0.,1.));
#325=DIRECTION('',(0.,-1.,0.));
#326=DIRECTION('',(0.,0.,1.));
#327=DIRECTION('',(1.,0.,0.));
#328=DIRECTION('',(0.,0.,-1.));
#329=DIRECTION('',(1.,0.,0.));
#330=DIRECTION('',(0.,0.,-1.));
#331=DIRECTION('',(-1.,0.,0.));
#332=DIRECTION('',(0.,0.,1.));
#333=DIRECTION('',(0.,1.,0.));
#334=DIRECTION('',(0.,0.,-1.));
#335=DIRECTION('',(0.,1.,0.));
#336=DIRECTION('',(0.,1.,0.));
#337=DIRECTION('',(0.,0.,1.));
#338=DIRECTION('',(1.,0.,0.));
#339=DIRECTION('',(0.,0.,-1.));
#340=DIRECTION('',(1.,0.,0.));
#341=DIRECTION('',(0.,0.,-1.));
#342=DIRECTION('',(-1.,0.,0.));
#343=DIRECTION('',(0.,0.,1.));
#344=DIRECTION('',(1.,0.,0.));
#345=DIRECTION('',(0.,0.,-1.));
#346=DIRECTION('',(0.,0.,1.));
#347=DIRECTION('',(1.,0.,0.));
#348=DIRECTION('',(0.,1.,0.));
#349=DIRECTION('',(0.,0.,1.));
#350=DIRECTION('',(1.,0.,0.));
#351=DIRECTION('',(0.,0.,-1.));
#352=DIRECTION('',(1.,0.,0.));
#353=DIRECTION('',(-1.,0.,0.));
#354=DIRECTION('',(0.,0.,1.));
#355=DIRECTION('',(0.,1.,0.));
#356=DIRECTION('',(0.,0.,-1.));
#357=DIRECTION('',(0.,1.,0.));
#358=DIRECTION('',(0.,-1.,0.));
#359=DIRECTION('',(0.,0.,-1.));
#360=DIRECTION('',(0.,1.,0.));
#361=DIRECTION('',(0.,0.,1.));
#362=DIRECTION('',(-1.,0.,0.));
#363=DIRECTION('',(0.,0.,-1.));
#364=DIRECTION('',(-1.,0.,0.));
#365=DIRECTION('',(0.,0.,-1.));
#366=DIRECTION('',(-1.,0.,0.));
#367=DIRECTION('',(0.,0.,1.));
#368=DIRECTION('',(1.,0.,0.));
#369=DIRECTION('',(0.,0.,1.));
#370=DIRECTION('',(1.,0.,0.));
#371=DIRECTION('',(0.,0.,1.));
#372=DIRECTION('',(1.,0.,0.));
#373=DIRECTION('',(0.,0.,1.));
#374=DIRECTION('',(1.,0.,0.));
#375=DIRECTION('',(0.,1.,0.));
#376=DIRECTION('',(0.,0.,1.));
#377=DIRECTION('',(0.,-1.,0.));
#378=DIRECTION('',(0.,0.,1.));
#379=DIRECTION('',(0.,1.,0.));
#380=DIRECTION('',(-1.,0.,0.));
#381=DIRECTION('',(0.,1.,0.));
#382=DIRECTION('',(0.,0.,1.));
#383=DIRECTION('',(0.,1.,0.));
#384=DIRECTION('',(0.,0.,1.));
#385=DIRECTION('',(0.,1.,0.));
#386=DIRECTION('',(-1.,0.,0.));
#387=CARTESIAN_POINT('',(0.,0.,0.));
#388=CARTESIAN_POINT('',(-0.0427800157260895,-0.0259381353563116,0.00381));
#389=CARTESIAN_POINT('',(-0.0427800157260895,0.000668183302469552,0.00381));
#390=CARTESIAN_POINT('',(-0.0427800157260895,0.000668183302469552,0.005334));
#391=CARTESIAN_POINT('',(-0.0427800157260895,0.00270018330246956,0.00381));
#392=CARTESIAN_POINT('',(-0.0427800157260895,0.00270018330246956,0.005334));
#393=CARTESIAN_POINT('',(-0.0625054648923874,-0.0259381353563116,0.00381));
#394=CARTESIAN_POINT('',(-0.0625054648923874,0.000668183302469552,0.00381));
#395=CARTESIAN_POINT('',(-0.0625054648923874,0.000668183302469552,0.005334));
#396=CARTESIAN_POINT('',(-0.0625054648923874,0.00270018330246956,0.00381));
#397=CARTESIAN_POINT('',(-0.0625054648923874,0.00270018330246956,0.005334));
#398=CARTESIAN_POINT('',(-0.0625054648923874,0.00320818330246955,0.00762));
#399=CARTESIAN_POINT('',(-0.0625054648923874,0.00320818330246955,0.00381));
#400=CARTESIAN_POINT('',(-0.0625054648923874,0.00320818330246955,0.006604));
#401=CARTESIAN_POINT('',(-0.0625054648923874,0.00320818330246955,0.));
#402=CARTESIAN_POINT('',(-0.0663154648923874,0.00320818330246955,0.));
#403=CARTESIAN_POINT('',(-0.0586954648923874,0.00320818330246955,0.));
#404=CARTESIAN_POINT('',(-0.0663154648923874,0.00320818330246955,0.00762));
#405=CARTESIAN_POINT('',(-0.0663154648923874,0.00320818330246955,0.00762));
#406=CARTESIAN_POINT('',(-0.0625054648923874,0.00320818330246955,0.00762));
#407=CARTESIAN_POINT('',(-0.0586954648923874,0.00320818330246955,0.00762));
#408=CARTESIAN_POINT('',(-0.0586954648923874,0.00320818330246955,0.00762));
#409=CARTESIAN_POINT('',(-0.0663154648923874,0.00193818330246956,0.00762));
#410=CARTESIAN_POINT('',(-0.0663154648923874,0.00193818330246956,0.));
#411=CARTESIAN_POINT('',(-0.0663154648923874,0.000668183302469552,0.));
#412=CARTESIAN_POINT('',(-0.0663154648923874,0.000668183302469552,0.00762));
#413=CARTESIAN_POINT('',(-0.0663154648923874,0.000668183302469552,0.00762));
#414=CARTESIAN_POINT('',(-0.0663154648923874,0.00193818330246956,0.00762));
#415=CARTESIAN_POINT('',(-0.0619469990530881,0.000668183302469552,0.00762));
#416=CARTESIAN_POINT('',(-0.0619469990530881,0.000668183302469552,0.));
#417=CARTESIAN_POINT('',(-0.0575785332137889,0.000668183302469553,0.));
#418=CARTESIAN_POINT('',(-0.0575785332137889,0.000668183302469553,0.00762));
#419=CARTESIAN_POINT('',(-0.0575785332137889,0.000668183302469553,0.00762));
#420=CARTESIAN_POINT('',(-0.0619469990530881,0.000668183302469552,0.00762));
#421=CARTESIAN_POINT('',(-0.0526427403092384,0.000668183302469553,0.00762));
#422=CARTESIAN_POINT('',(-0.0526427403092384,0.000668183302469553,0.));
#423=CARTESIAN_POINT('',(-0.047706947404688,0.000668183302469552,0.));
#424=CARTESIAN_POINT('',(-0.047706947404688,0.000668183302469552,0.00762));
#425=CARTESIAN_POINT('',(-0.047706947404688,0.000668183302469552,0.00762));
#426=CARTESIAN_POINT('',(-0.0526427403092384,0.000668183302469553,0.00762));
#427=CARTESIAN_POINT('',(-0.0468928065750507,0.000668183302469552,0.00762));
#428=CARTESIAN_POINT('',(-0.0468928065750507,0.000668183302469552,0.));
#429=CARTESIAN_POINT('',(-0.0389700157260895,0.000668183302469552,0.));
#430=CARTESIAN_POINT('',(-0.0389700157260895,0.000668183302469552,0.00762));
#431=CARTESIAN_POINT('',(-0.0389700157260895,0.000668183302469552,0.00762));
#432=CARTESIAN_POINT('',(-0.0468928065750507,0.000668183302469552,0.00762));
#433=CARTESIAN_POINT('',(-0.0389700157260895,0.00193818330246956,0.00762));
#434=CARTESIAN_POINT('',(-0.0389700157260895,0.00193818330246956,0.));
#435=CARTESIAN_POINT('',(-0.0389700157260895,0.00320818330246955,0.));
#436=CARTESIAN_POINT('',(-0.0389700157260895,0.00320818330246955,0.00762));
#437=CARTESIAN_POINT('',(-0.0389700157260895,0.00320818330246955,0.00762));
#438=CARTESIAN_POINT('',(-0.0389700157260895,0.00193818330246956,0.00762));
#439=CARTESIAN_POINT('',(-0.0427800157260895,0.00320818330246955,0.00762));
#440=CARTESIAN_POINT('',(-0.0427800157260895,0.00320818330246955,0.00381));
#441=CARTESIAN_POINT('',(-0.0427800157260895,0.00320818330246955,0.006604));
#442=CARTESIAN_POINT('',(-0.0427800157260895,0.00320818330246955,0.));
#443=CARTESIAN_POINT('',(-0.0465900157260895,0.00320818330246955,0.));
#444=CARTESIAN_POINT('',(-0.0465900157260895,0.00320818330246955,0.00762));
#445=CARTESIAN_POINT('',(-0.0465900157260895,0.00320818330246955,0.00762));
#446=CARTESIAN_POINT('',(-0.0427800157260895,0.00320818330246955,0.00762));
#447=CARTESIAN_POINT('',(-0.0526427403092384,0.000668183302469554,0.00762));
#448=CARTESIAN_POINT('',(-0.0526427403092384,0.000668183302469554,0.));
#449=CARTESIAN_POINT('',(-0.0526427403092384,0.000668183302469554,0.00762));
#450=CARTESIAN_POINT('',(-0.0526427403092384,0.000668183302469552,0.00762));
#451=CARTESIAN_POINT('',(-0.0526427403092384,0.000668183302469552,0.));
#452=CARTESIAN_POINT('',(-0.0625054648923874,0.00270018330246956,0.00381));
#453=CARTESIAN_POINT('',(-0.0625054648923874,0.00270018330246956,0.00381));
#454=CARTESIAN_POINT('',(-0.0625054648923874,0.00270018330246956,0.006604));
#455=CARTESIAN_POINT('',(-0.0521347403092384,0.00270018330246956,0.00381));
#456=CARTESIAN_POINT('',(-0.0427800157260895,0.00270018330246956,0.00381));
#457=CARTESIAN_POINT('',(-0.0427800157260895,0.00270018330246956,0.00381));
#458=CARTESIAN_POINT('',(-0.0427800157260895,0.00270018330246956,0.006604));
#459=CARTESIAN_POINT('',(-0.0521347403092384,0.00270018330246956,0.00381));
#460=MECHANICAL_DESIGN_GEOMETRIC_PRESENTATION_REPRESENTATION('',(#269),
#461);
#461=(
GEOMETRIC_REPRESENTATION_CONTEXT(3)
GLOBAL_UNCERTAINTY_ASSIGNED_CONTEXT((#462))
GLOBAL_UNIT_ASSIGNED_CONTEXT((#465,#464,#463))
REPRESENTATION_CONTEXT('Part 1','TOP_LEVEL_ASSEMBLY_PART')
);
#462=UNCERTAINTY_MEASURE_WITH_UNIT(LENGTH_MEASURE(1.E-8),#465,
'DISTANCE_ACCURACY_VALUE','Maximum Tolerance applied to model');
#463=(
NAMED_UNIT(*)
SI_UNIT($,.STERADIAN.)
SOLID_ANGLE_UNIT()
);
#464=(
NAMED_UNIT(*)
PLANE_ANGLE_UNIT()
SI_UNIT($,.RADIAN.)
);
#465=(
LENGTH_UNIT()
NAMED_UNIT(*)
SI_UNIT($,.METRE.)
);
#466=PRODUCT_DEFINITION_SHAPE('','',#467);
#467=PRODUCT_DEFINITION('','',#469,#468);
#468=PRODUCT_DEFINITION_CONTEXT('',#475,'design');
#469=PRODUCT_DEFINITION_FORMATION_WITH_SPECIFIED_SOURCE('','',#471,
 .NOT_KNOWN.);
#470=PRODUCT_RELATED_PRODUCT_CATEGORY('','',(#471));
#471=PRODUCT('Part 1','Part 1','Part 1',(#473));
#472=PRODUCT_CATEGORY('','');
#473=PRODUCT_CONTEXT('',#475,'mechanical');
#474=APPLICATION_PROTOCOL_DEFINITION('international standard',
'ap242_managed_model_based_3d_engineering',2020,#475);
#475=APPLICATION_CONTEXT('managed model based 3d engineering');
ENDSEC;
END-ISO-10303-21;
